%FSLAX44Y44*%
%MOMM*%
G71*
G01*
G75*
G04 Layer_Physical_Order=1*
G04 Layer_Color=255*
%ADD10O,1.9000X0.6000*%
%ADD11R,1.1000X1.0000*%
%ADD12R,1.6200X1.3700*%
%ADD13R,1.0000X1.1000*%
%ADD14R,0.8000X0.9000*%
%ADD15R,0.7000X0.9000*%
%ADD16R,1.3700X1.6200*%
%ADD17R,3.0000X1.2000*%
%ADD18R,1.2000X3.0000*%
%ADD19R,5.0000X4.7500*%
%ADD20R,1.5000X1.7500*%
%ADD21R,5.5000X6.7000*%
%ADD22R,0.9500X2.2000*%
%ADD23R,4.7500X5.0000*%
%ADD24R,1.7500X1.5000*%
%ADD25R,1.1000X3.5000*%
%ADD26R,10.5000X8.6000*%
%ADD27R,0.6000X1.6000*%
%ADD28O,2.6000X0.7000*%
%ADD29R,3.6000X1.5000*%
%ADD30R,3.5000X1.5000*%
%ADD31R,0.9000X0.3000*%
%ADD32O,2.5000X0.7000*%
%ADD33R,1.2700X1.5240*%
%ADD34R,2.4000X2.0000*%
%ADD35R,2.4000X2.0000*%
%ADD36R,1.6000X0.6000*%
%ADD37C,0.3000*%
%ADD38C,0.5000*%
%ADD39C,0.4000*%
%ADD40C,0.2540*%
%ADD41C,0.7000*%
%ADD42C,2.0000*%
%ADD43C,1.9000*%
%ADD44C,1.0000*%
%ADD45C,7.0000*%
%ADD46C,2.2000*%
%ADD47R,1.5000X1.5000*%
%ADD48C,1.5000*%
%ADD49C,2.5000*%
%ADD50R,2.2000X2.2000*%
%ADD51R,3.0000X3.0000*%
%ADD52C,3.0000*%
%ADD53R,2.5000X2.5000*%
%ADD54C,1.5240*%
%ADD55R,1.5000X1.5000*%
%ADD56C,0.6500*%
%ADD57O,2.0000X1.0000*%
%ADD58O,1.6000X0.8000*%
%ADD59C,0.6000*%
%ADD60C,0.8000*%
%ADD61C,1.2000*%
G36*
X1905000Y710000D02*
X1914000Y701000D01*
X1914000Y600000D01*
X1914000Y600000D01*
X1919000Y595000D01*
X1980000D01*
X1985000Y590000D01*
Y555000D01*
X1976000Y546000D01*
Y470000D01*
X1960000D01*
X1940000Y490000D01*
X1885000D01*
X1880000Y495000D01*
Y505000D01*
X1885000Y510000D01*
X1910000D01*
X1915000Y515000D01*
Y574000D01*
X1909000Y580000D01*
X1891000D01*
X1886000Y575000D01*
Y557000D01*
X1876000D01*
Y580000D01*
X1871000Y585000D01*
X1857000D01*
X1852000Y580000D01*
Y557000D01*
X1842000D01*
X1842000Y595000D01*
X1832000Y605000D01*
X1785000D01*
X1774000Y616000D01*
X1710000D01*
X1662000Y664000D01*
Y705000D01*
X1667000Y710000D01*
X1905000Y710000D01*
D02*
G37*
G36*
X1019000Y630000D02*
Y614000D01*
X1028000Y605000D01*
X1037000D01*
X1042000Y600000D01*
Y548000D01*
X1065000Y525000D01*
X1080000D01*
X1085000Y520000D01*
Y475000D01*
X1080000Y470000D01*
X1005000D01*
X1000000Y475000D01*
Y510000D01*
X990000Y520000D01*
X957000D01*
X952000Y525000D01*
Y530000D01*
X943000Y539000D01*
X903000D01*
X898000Y544000D01*
Y562000D01*
X894000Y566000D01*
X881000D01*
X877000Y562000D01*
Y535000D01*
X872000Y530000D01*
X835000D01*
X830000Y535000D01*
Y575000D01*
X850000Y595000D01*
X942000D01*
X950000Y603000D01*
Y636000D01*
X1013000D01*
X1019000Y630000D01*
D02*
G37*
G36*
X1207000Y617000D02*
Y587000D01*
X1205000Y585000D01*
X1193000D01*
X1150000Y542000D01*
Y515000D01*
X1138000D01*
X1133000Y520000D01*
Y549000D01*
X1142000Y558000D01*
Y579000D01*
X1167000Y604000D01*
Y617000D01*
X1172000Y622000D01*
X1202000D01*
X1207000Y617000D01*
D02*
G37*
G36*
X1614000Y610000D02*
Y577000D01*
X1605000Y568000D01*
Y490000D01*
X1591000D01*
X1585000Y484000D01*
Y473000D01*
X1575000D01*
Y485000D01*
X1565000Y495000D01*
X1530000D01*
X1526000Y499000D01*
Y565000D01*
X1546000Y585000D01*
Y610000D01*
X1551000Y615000D01*
X1609000D01*
X1614000Y610000D01*
D02*
G37*
G36*
X1399000Y612000D02*
Y596000D01*
X1408000Y587000D01*
X1417000D01*
X1422000Y582000D01*
Y530000D01*
X1445000Y507000D01*
X1460000D01*
X1465000Y502000D01*
Y457000D01*
X1460000Y452000D01*
X1385000D01*
X1380000Y457000D01*
Y492000D01*
X1370000Y502000D01*
X1337000D01*
X1332000Y507000D01*
Y512000D01*
X1323000Y521000D01*
X1283000D01*
X1278000Y526000D01*
Y544000D01*
X1274000Y548000D01*
X1261000D01*
X1257000Y544000D01*
Y517000D01*
X1252000Y512000D01*
X1215000D01*
X1210000Y517000D01*
Y542000D01*
X1245000Y577000D01*
X1322000Y577000D01*
X1330000Y585000D01*
Y618000D01*
X1393000D01*
X1399000Y612000D01*
D02*
G37*
G36*
X1279000Y701000D02*
Y669000D01*
X1325000Y623000D01*
Y587000D01*
X1320000Y582000D01*
X1247000D01*
Y582000D01*
X1243000D01*
X1205000Y544000D01*
Y435000D01*
X1200000Y430000D01*
X1160000D01*
X1155000Y435000D01*
Y540000D01*
X1195000Y580000D01*
X1207000D01*
X1212000Y585000D01*
Y605000D01*
X1217000Y610000D01*
X1235000D01*
X1240000Y615000D01*
Y648000D01*
X1261000Y669000D01*
Y702000D01*
X1263000Y704000D01*
X1276000D01*
X1279000Y701000D01*
D02*
G37*
G36*
X1470000Y442000D02*
Y432000D01*
X1465000Y427000D01*
X1385000D01*
X1380000Y432000D01*
Y442000D01*
X1385000Y447000D01*
X1465000D01*
X1470000Y442000D01*
D02*
G37*
G36*
X1090000Y460000D02*
Y450000D01*
X1085000Y445000D01*
X1005000D01*
X1000000Y450000D01*
Y460000D01*
X1005000Y465000D01*
X1085000D01*
X1090000Y460000D01*
D02*
G37*
G36*
X1059000Y562000D02*
X1068000Y553000D01*
X1104000D01*
X1106000Y551000D01*
X1126000D01*
X1128000Y549000D01*
Y518000D01*
X1136000Y510000D01*
X1150000D01*
Y458000D01*
X1148000Y456000D01*
X1137000D01*
X1133000Y452000D01*
Y433000D01*
X1141000Y425000D01*
X1202000D01*
X1210000Y433000D01*
Y502000D01*
X1215000Y507000D01*
X1306000D01*
X1312000Y501000D01*
Y435000D01*
X1325000Y422000D01*
X1467000D01*
X1475000Y430000D01*
Y444000D01*
X1470000Y449000D01*
Y504000D01*
X1462000Y512000D01*
X1447000D01*
X1427000Y532000D01*
Y542000D01*
X1429000Y544000D01*
Y565000D01*
X1439000D01*
Y544000D01*
X1451000Y532000D01*
X1515000D01*
X1520000Y527000D01*
Y497000D01*
X1527000Y490000D01*
X1563000D01*
X1570000Y483000D01*
Y470000D01*
X1574000Y466000D01*
X1586000D01*
X1590000Y470000D01*
Y482000D01*
X1593000Y485000D01*
X1798000D01*
X1803000Y490000D01*
Y534000D01*
X1808000Y539000D01*
Y558000D01*
X1818000D01*
Y539000D01*
X1822000Y535000D01*
X1849000D01*
X1864000Y520000D01*
X1870000D01*
X1875000Y515000D01*
Y492000D01*
X1882000Y485000D01*
X1938000D01*
X1958000Y465000D01*
X2169000D01*
X2174000Y470000D01*
Y514000D01*
X2179000Y519000D01*
Y538000D01*
X2189000D01*
Y519000D01*
X2193000Y515000D01*
X2220000D01*
X2235000Y500000D01*
Y400000D01*
X2225000Y390000D01*
X1905000D01*
X1895000Y380000D01*
X1292000D01*
X1282000Y390000D01*
X1267000D01*
X1260000Y383000D01*
Y379000D01*
X1258000Y377000D01*
X1242000D01*
X1215000Y350000D01*
X1103000D01*
X1093000Y340000D01*
Y320000D01*
X1088000Y315000D01*
X995000D01*
X945000Y365000D01*
X840000D01*
X830000Y375000D01*
Y520000D01*
X835000Y525000D01*
X925000D01*
X930000Y520000D01*
Y455000D01*
X945000Y440000D01*
X1088000D01*
X1095000Y447000D01*
Y462000D01*
X1090000Y467000D01*
Y522000D01*
X1082000Y530000D01*
X1067000D01*
X1047000Y550000D01*
Y563000D01*
X1049000Y565000D01*
Y584000D01*
X1059000D01*
Y562000D01*
D02*
G37*
G36*
X1155000Y730000D02*
Y610000D01*
X1150000Y605000D01*
X1132000D01*
X1127000Y600000D01*
Y582000D01*
X1117000D01*
Y605000D01*
X1112000Y610000D01*
X1098000D01*
X1093000Y605000D01*
Y582000D01*
X1083000D01*
Y605000D01*
X1078000Y610000D01*
X1030000D01*
X1025000Y615000D01*
Y631000D01*
X1015000Y641000D01*
X951000D01*
X903000Y689000D01*
Y730000D01*
X908000Y735000D01*
X1150000D01*
X1155000Y730000D01*
D02*
G37*
G36*
X1658000Y694000D02*
Y662000D01*
X1704000Y616000D01*
Y580000D01*
X1699000Y575000D01*
X1619000Y575000D01*
Y641000D01*
X1640000Y662000D01*
Y695000D01*
X1642000Y697000D01*
X1655000D01*
X1658000Y694000D01*
D02*
G37*
G36*
X3046195Y592900D02*
X3019195D01*
X3017195Y594900D01*
Y610900D01*
X3014195Y613900D01*
X2986195D01*
Y613822D01*
X2984634Y614132D01*
X2983311Y615016D01*
X2982427Y616339D01*
X2982116Y617900D01*
X2982097D01*
X2982485Y619851D01*
X2983590Y621505D01*
X2985244Y622610D01*
X2987195Y622998D01*
X2998195Y622900D01*
Y622840D01*
X3000022Y623080D01*
X3001725Y623786D01*
X3003187Y624908D01*
X3004309Y626370D01*
X3005015Y628073D01*
X3005255Y629900D01*
X3005195Y689900D01*
X3005312D01*
X3004846Y692241D01*
X3003521Y694226D01*
X3001536Y695552D01*
X2999195Y696018D01*
X2987195Y695900D01*
Y695802D01*
X2985244Y696190D01*
X2983590Y697295D01*
X2982485Y698949D01*
X2982097Y700900D01*
X2982116D01*
X2982427Y702461D01*
X2983311Y703784D01*
X2984634Y704668D01*
X2986195Y704978D01*
X3014195Y704900D01*
X3020195Y710900D01*
X3046195D01*
Y592900D01*
D02*
G37*
G36*
X899000Y719000D02*
Y687000D01*
X945000Y641000D01*
Y605000D01*
X940000Y600000D01*
X865000D01*
X860000Y605000D01*
Y666000D01*
X881000Y687000D01*
Y720000D01*
X883000Y722000D01*
X896000D01*
X899000Y719000D01*
D02*
G37*
G36*
X1535000Y712000D02*
Y592000D01*
X1530000Y587000D01*
X1512000D01*
X1507000Y582000D01*
Y564000D01*
X1497000D01*
Y587000D01*
X1492000Y592000D01*
X1478000D01*
X1473000Y587000D01*
Y564000D01*
X1463000D01*
Y587000D01*
X1458000Y592000D01*
X1410000D01*
X1405000Y597000D01*
Y613000D01*
X1395000Y623000D01*
X1331000D01*
X1283000Y671000D01*
Y712000D01*
X1288000Y717000D01*
X1530000D01*
X1535000Y712000D01*
D02*
G37*
G36*
X2276000Y690000D02*
X2285000Y681000D01*
X2285000Y565000D01*
X2280000Y560000D01*
X2262000D01*
X2257000Y555000D01*
Y537000D01*
X2247000D01*
Y560000D01*
X2242000Y565000D01*
X2228000D01*
X2223000Y560000D01*
Y537000D01*
X2213000D01*
X2213000Y575000D01*
X2203000Y585000D01*
X2156000D01*
X2145000Y596000D01*
X2081000D01*
X2033000Y644000D01*
Y685000D01*
X2038000Y690000D01*
X2276000Y690000D01*
D02*
G37*
G36*
X2154000Y579000D02*
X2201000D01*
X2208000Y572000D01*
Y558000D01*
X2206000Y556000D01*
Y537000D01*
X2196000D01*
Y556000D01*
X2192000Y560000D01*
X2177000D01*
X2173000Y556000D01*
Y520000D01*
X2123000Y470000D01*
X1982000D01*
Y545000D01*
X1987000Y550000D01*
X2073000D01*
X2080000Y557000D01*
Y591000D01*
X2142000D01*
X2154000Y579000D01*
D02*
G37*
G36*
X1783000Y599000D02*
X1830000D01*
X1837000Y592000D01*
Y578000D01*
X1835000Y576000D01*
Y557000D01*
X1825000D01*
Y576000D01*
X1821000Y580000D01*
X1806000D01*
X1802000Y576000D01*
Y540000D01*
X1752000Y490000D01*
X1611000D01*
Y565000D01*
X1616000Y570000D01*
X1702000D01*
X1709000Y577000D01*
Y611000D01*
X1771000D01*
X1783000Y599000D01*
D02*
G37*
G36*
X2029000Y674000D02*
Y642000D01*
X2075000Y596000D01*
Y560000D01*
X2070000Y555000D01*
X1990000Y555000D01*
Y621000D01*
X2011000Y642000D01*
Y675000D01*
X2013000Y677000D01*
X2026000D01*
X2029000Y674000D01*
D02*
G37*
D10*
X2891500Y544050D02*
D03*
Y531350D02*
D03*
Y518650D02*
D03*
Y505950D02*
D03*
X2938500Y544050D02*
D03*
Y531350D02*
D03*
Y518650D02*
D03*
Y505950D02*
D03*
X2933500Y415950D02*
D03*
Y428650D02*
D03*
Y441350D02*
D03*
Y454050D02*
D03*
X2886500Y415950D02*
D03*
Y428650D02*
D03*
Y441350D02*
D03*
Y454050D02*
D03*
X418500Y415950D02*
D03*
Y428650D02*
D03*
Y441350D02*
D03*
Y454050D02*
D03*
X371500Y415950D02*
D03*
Y428650D02*
D03*
Y441350D02*
D03*
Y454050D02*
D03*
D11*
X2965500Y563000D02*
D03*
X2982500D02*
D03*
X2965500Y544000D02*
D03*
X2982500D02*
D03*
X2754500Y485000D02*
D03*
X2771500D02*
D03*
X2663500Y685000D02*
D03*
X2646500D02*
D03*
X2926500D02*
D03*
X2943500D02*
D03*
X2926500Y705000D02*
D03*
X2943500D02*
D03*
X2958500Y601000D02*
D03*
X2975500D02*
D03*
X2351500Y485000D02*
D03*
X2368500D02*
D03*
X2351500Y460000D02*
D03*
X2368500D02*
D03*
X2351500Y435000D02*
D03*
X2368500D02*
D03*
X2351500Y410000D02*
D03*
X2368500D02*
D03*
X2581500Y670000D02*
D03*
X2598500D02*
D03*
X2348500Y515000D02*
D03*
X2331500D02*
D03*
X2348500Y555000D02*
D03*
X2331500D02*
D03*
X2348500Y595000D02*
D03*
X2331500D02*
D03*
X2348500Y575000D02*
D03*
X2331500D02*
D03*
X2348500Y535000D02*
D03*
X2331500D02*
D03*
X1647500Y690000D02*
D03*
X1630500D02*
D03*
X1647500Y670000D02*
D03*
X1630500D02*
D03*
X1978500Y650000D02*
D03*
X1961500D02*
D03*
X2018500Y670000D02*
D03*
X2001500D02*
D03*
X2018500Y650000D02*
D03*
X2001500D02*
D03*
X1228500Y677000D02*
D03*
X1211500D02*
D03*
X1268500Y697000D02*
D03*
X1251500D02*
D03*
X1268500Y677000D02*
D03*
X1251500D02*
D03*
X1320500Y770000D02*
D03*
X1337500D02*
D03*
X1280500D02*
D03*
X1297500D02*
D03*
X1187500D02*
D03*
X1204500D02*
D03*
X1147500D02*
D03*
X1164500D02*
D03*
X1054500D02*
D03*
X1071500D02*
D03*
X1014500D02*
D03*
X1031500D02*
D03*
X921500D02*
D03*
X938500D02*
D03*
X881500D02*
D03*
X898500D02*
D03*
X1852500D02*
D03*
X1869500D02*
D03*
X1812500D02*
D03*
X1829500D02*
D03*
X1719500D02*
D03*
X1736500D02*
D03*
X1679500D02*
D03*
X1696500D02*
D03*
X1586500D02*
D03*
X1603500D02*
D03*
X1546500D02*
D03*
X1563500D02*
D03*
X1453500D02*
D03*
X1470500D02*
D03*
X1413500D02*
D03*
X1430500D02*
D03*
X2384500D02*
D03*
X2401500D02*
D03*
X2344500D02*
D03*
X2361500D02*
D03*
X2251500D02*
D03*
X2268500D02*
D03*
X2211500D02*
D03*
X2228500D02*
D03*
X2118500D02*
D03*
X2135500D02*
D03*
X2078500D02*
D03*
X2095500D02*
D03*
X1985500D02*
D03*
X2002500D02*
D03*
X1945500D02*
D03*
X1962500D02*
D03*
X2916500Y770000D02*
D03*
X2933500D02*
D03*
X2876500D02*
D03*
X2893500D02*
D03*
X2783500Y770000D02*
D03*
X2800500D02*
D03*
X2743500D02*
D03*
X2760500D02*
D03*
X2650500Y770000D02*
D03*
X2667500D02*
D03*
X2610500D02*
D03*
X2627500D02*
D03*
X888500Y715000D02*
D03*
X871500D02*
D03*
X848500Y695000D02*
D03*
X831500D02*
D03*
X888500D02*
D03*
X871500D02*
D03*
X2517500Y770000D02*
D03*
X2534500D02*
D03*
X2477500D02*
D03*
X2494500D02*
D03*
X3018500Y377000D02*
D03*
X3001500D02*
D03*
X306500D02*
D03*
X323500D02*
D03*
X2826500Y395000D02*
D03*
X2843500D02*
D03*
X326500Y470000D02*
D03*
X343500D02*
D03*
X326500Y452000D02*
D03*
X343500D02*
D03*
X2181500Y480000D02*
D03*
X2164500D02*
D03*
X1810500Y500000D02*
D03*
X1793500D02*
D03*
X1607500Y670000D02*
D03*
X1590500D02*
D03*
X685500Y498000D02*
D03*
X702500D02*
D03*
X685500Y516000D02*
D03*
X702500D02*
D03*
X532500Y498000D02*
D03*
X515500D02*
D03*
X362500D02*
D03*
X345500D02*
D03*
X362500Y516000D02*
D03*
X345500D02*
D03*
X532500D02*
D03*
X515500D02*
D03*
X648500D02*
D03*
X631500D02*
D03*
X648500Y498000D02*
D03*
X631500D02*
D03*
X585500Y510000D02*
D03*
X568500D02*
D03*
X585500Y490000D02*
D03*
X568500D02*
D03*
D12*
X2835000Y503900D02*
D03*
Y541000D02*
D03*
X2811000Y482100D02*
D03*
Y445000D02*
D03*
X2809000Y553100D02*
D03*
Y516000D02*
D03*
X2784000Y553100D02*
D03*
Y516000D02*
D03*
X2759000Y553100D02*
D03*
Y516000D02*
D03*
X2715000Y553100D02*
D03*
Y516000D02*
D03*
X1325000Y444900D02*
D03*
Y482000D02*
D03*
X945000Y462900D02*
D03*
Y500000D02*
D03*
X2855000Y412900D02*
D03*
Y450000D02*
D03*
X450000Y443100D02*
D03*
Y406000D02*
D03*
X430000Y495900D02*
D03*
Y533000D02*
D03*
X455000Y495900D02*
D03*
Y533000D02*
D03*
D13*
X2835000Y461500D02*
D03*
Y478500D02*
D03*
X2795000Y576500D02*
D03*
Y593500D02*
D03*
X2737000Y536500D02*
D03*
Y553500D02*
D03*
X2693000Y536500D02*
D03*
Y553500D02*
D03*
X2745000Y738500D02*
D03*
Y721500D02*
D03*
X2725000Y721500D02*
D03*
Y738500D02*
D03*
X2300000Y621500D02*
D03*
Y638500D02*
D03*
X2320000Y621500D02*
D03*
Y638500D02*
D03*
X2580000Y713500D02*
D03*
Y696500D02*
D03*
X2561000Y713500D02*
D03*
Y696500D02*
D03*
X1580000Y461500D02*
D03*
Y478500D02*
D03*
X1143000Y461500D02*
D03*
Y444500D02*
D03*
X1370000Y445500D02*
D03*
Y462500D02*
D03*
X1350000Y461500D02*
D03*
Y444500D02*
D03*
X990000Y463500D02*
D03*
Y480500D02*
D03*
X970000Y479500D02*
D03*
Y462500D02*
D03*
X2640000Y443500D02*
D03*
Y426500D02*
D03*
X2725000Y443500D02*
D03*
Y426500D02*
D03*
X2700000Y443500D02*
D03*
Y426500D02*
D03*
X2785000Y443500D02*
D03*
Y426500D02*
D03*
X720000Y443500D02*
D03*
Y426500D02*
D03*
X635000Y443500D02*
D03*
Y426500D02*
D03*
X575000Y443500D02*
D03*
Y426500D02*
D03*
X660000Y443500D02*
D03*
Y426500D02*
D03*
X473000Y424500D02*
D03*
Y441500D02*
D03*
X3000000Y473500D02*
D03*
Y456500D02*
D03*
X3020000Y473500D02*
D03*
Y456500D02*
D03*
D14*
X2688000Y710000D02*
D03*
X2702000D02*
D03*
D15*
X3006500Y601000D02*
D03*
X3021500D02*
D03*
X2949500Y620000D02*
D03*
X2934500D02*
D03*
X2949500Y666000D02*
D03*
X2934500D02*
D03*
X2949500Y652000D02*
D03*
X2934500D02*
D03*
X2949500Y638000D02*
D03*
X2934500D02*
D03*
D16*
X2533100Y410000D02*
D03*
X2496000D02*
D03*
X2533100Y435000D02*
D03*
X2496000D02*
D03*
X2533100Y460000D02*
D03*
X2496000D02*
D03*
X2533100Y485000D02*
D03*
X2496000D02*
D03*
X2396900D02*
D03*
X2434000D02*
D03*
X2396900Y460000D02*
D03*
X2434000D02*
D03*
X2396900Y435000D02*
D03*
X2434000D02*
D03*
X2396900Y410000D02*
D03*
X2434000D02*
D03*
X2664100Y710000D02*
D03*
X2627000D02*
D03*
X314100Y515000D02*
D03*
X277000D02*
D03*
X314100Y490000D02*
D03*
X277000D02*
D03*
D17*
X2222140Y480000D02*
D03*
X2267860D02*
D03*
X1852140Y500000D02*
D03*
X1897860D02*
D03*
D18*
X1535000Y469140D02*
D03*
Y514860D02*
D03*
X1143000Y487140D02*
D03*
Y532860D02*
D03*
D19*
X1635000Y514000D02*
D03*
X2006000Y494000D02*
D03*
D20*
X1598000Y503000D02*
D03*
Y525000D02*
D03*
X1969000Y483000D02*
D03*
Y505000D02*
D03*
D21*
X1245000Y465500D02*
D03*
X865000Y483500D02*
D03*
D22*
X1222200Y531000D02*
D03*
X1267800D02*
D03*
X842200Y549000D02*
D03*
X887800D02*
D03*
D23*
X1055000Y495000D02*
D03*
X1435000Y477000D02*
D03*
D24*
X1066000Y458000D02*
D03*
X1044000D02*
D03*
X1446000Y440000D02*
D03*
X1424000D02*
D03*
D25*
X1054000Y582500D02*
D03*
X1071000D02*
D03*
X1088000D02*
D03*
X1105000D02*
D03*
X1122000D02*
D03*
X1434000Y564500D02*
D03*
X1451000D02*
D03*
X1468000D02*
D03*
X1485000D02*
D03*
X1502000D02*
D03*
X2184000Y537500D02*
D03*
X2201000D02*
D03*
X2218000D02*
D03*
X2235000D02*
D03*
X2252000D02*
D03*
X1813000Y557500D02*
D03*
X1830000D02*
D03*
X1847000D02*
D03*
X1864000D02*
D03*
X1881000D02*
D03*
D26*
X1088000Y678000D02*
D03*
X1468000Y660000D02*
D03*
X2218000Y633000D02*
D03*
X1847000Y653000D02*
D03*
D27*
X2660500Y424000D02*
D03*
X2679500D02*
D03*
X2670000Y446000D02*
D03*
X2745500Y424000D02*
D03*
X2764500D02*
D03*
X2755000Y446000D02*
D03*
X595500Y424000D02*
D03*
X614500D02*
D03*
X605000Y446000D02*
D03*
X680500Y424000D02*
D03*
X699500D02*
D03*
X690000Y446000D02*
D03*
D28*
X2475000Y573150D02*
D03*
Y585850D02*
D03*
Y598550D02*
D03*
Y611250D02*
D03*
Y623950D02*
D03*
Y636650D02*
D03*
Y649350D02*
D03*
Y662050D02*
D03*
Y674750D02*
D03*
Y687450D02*
D03*
Y700150D02*
D03*
Y712850D02*
D03*
X2383000Y573150D02*
D03*
Y585850D02*
D03*
Y598550D02*
D03*
Y611250D02*
D03*
Y623950D02*
D03*
Y636650D02*
D03*
Y649350D02*
D03*
Y662050D02*
D03*
Y674750D02*
D03*
Y687450D02*
D03*
Y700150D02*
D03*
Y712850D02*
D03*
X2554000Y648800D02*
D03*
Y636100D02*
D03*
Y623400D02*
D03*
Y610700D02*
D03*
Y598000D02*
D03*
Y585300D02*
D03*
Y572600D02*
D03*
Y559900D02*
D03*
Y547200D02*
D03*
X2646000Y648800D02*
D03*
Y636100D02*
D03*
Y623400D02*
D03*
Y610700D02*
D03*
Y598000D02*
D03*
Y585300D02*
D03*
Y572600D02*
D03*
Y559900D02*
D03*
Y547200D02*
D03*
D29*
X1936900Y575000D02*
D03*
X1186900Y602000D02*
D03*
X1566900Y595000D02*
D03*
X806900Y620000D02*
D03*
D30*
X2014370Y575000D02*
D03*
X1264370Y602000D02*
D03*
X1644370Y595000D02*
D03*
X884370Y620000D02*
D03*
D31*
X2972400Y686500D02*
D03*
Y681500D02*
D03*
Y676500D02*
D03*
Y671500D02*
D03*
Y666500D02*
D03*
Y661500D02*
D03*
Y656500D02*
D03*
Y651500D02*
D03*
Y646500D02*
D03*
Y641500D02*
D03*
Y636500D02*
D03*
Y631500D02*
D03*
D32*
X2795500Y714050D02*
D03*
Y701350D02*
D03*
Y688650D02*
D03*
Y675950D02*
D03*
X2864500Y714050D02*
D03*
Y701350D02*
D03*
Y688650D02*
D03*
Y675950D02*
D03*
D33*
X2744160Y660000D02*
D03*
X2723840D02*
D03*
X2744160Y630000D02*
D03*
X2723840D02*
D03*
X2744160Y600000D02*
D03*
X2723840D02*
D03*
D34*
X352860Y560000D02*
D03*
X522860D02*
D03*
X692860D02*
D03*
D35*
X307140D02*
D03*
X477140D02*
D03*
X647140D02*
D03*
D36*
X411000Y550500D02*
D03*
Y569500D02*
D03*
X389000Y560000D02*
D03*
X581000Y550500D02*
D03*
Y569500D02*
D03*
X559000Y560000D02*
D03*
X751000Y550500D02*
D03*
Y569500D02*
D03*
X729000Y560000D02*
D03*
X751000Y506500D02*
D03*
Y525500D02*
D03*
X729000Y516000D02*
D03*
D37*
X2745000Y731040D02*
Y738500D01*
Y731040D02*
X2755040D01*
X2727000D02*
X2745000D01*
X2755040D02*
X2760000Y736000D01*
X2725000Y733040D02*
X2727000Y731040D01*
X2725000Y733040D02*
Y738500D01*
X2871500Y506100D02*
X2871650Y505950D01*
X2891500D01*
X2871650Y518650D02*
X2891500D01*
X2871500Y518800D02*
X2871650Y518650D01*
X2938500Y505950D02*
X2958350D01*
X2958500Y505800D01*
X2810000Y395000D02*
Y408000D01*
X2835000Y433000D01*
Y461500D01*
X2810000Y395000D02*
X2826500D01*
X2801000D02*
X2810000D01*
X2809000Y507000D02*
Y516000D01*
Y507000D02*
X2825000Y491000D01*
X2835000D01*
Y503900D01*
Y478500D02*
Y491000D01*
X2743050Y485000D02*
X2754500D01*
X2784000Y495000D02*
X2808000D01*
X2811000Y492000D01*
Y482100D02*
Y492000D01*
X2784000Y495000D02*
Y516000D01*
Y488000D02*
Y495000D01*
X2771500Y485000D02*
X2781000D01*
X2784000Y488000D01*
X2791000Y465000D02*
X2797000Y459000D01*
Y405000D02*
Y459000D01*
X2765000Y373000D02*
X2797000Y405000D01*
X2785000Y465000D02*
X2791000D01*
X2475000Y362000D02*
X2496000Y383000D01*
X2551000D01*
X2658000Y490000D01*
X2730000D01*
X2737000Y497000D01*
Y524000D01*
X2440000Y362000D02*
X2469000Y391000D01*
X2548000D01*
X2681000Y524000D01*
X2693000D01*
X2682000Y536000D02*
Y565000D01*
X2556000Y410000D02*
X2682000Y536000D01*
X2533100Y410000D02*
X2556000D01*
X2674000Y539000D02*
Y560000D01*
X2570000Y435000D02*
X2674000Y539000D01*
X2533100Y435000D02*
X2570000D01*
X2625000Y512000D02*
Y542000D01*
X2598000Y485000D02*
X2625000Y512000D01*
X2533100Y485000D02*
X2598000D01*
X2666000Y542000D02*
Y555000D01*
X2584000Y460000D02*
X2666000Y542000D01*
X2533100Y460000D02*
X2584000D01*
X2737000Y525050D02*
Y536500D01*
X2693000Y525050D02*
Y536500D01*
X2661700Y585300D02*
X2682000Y565000D01*
X2661400Y572600D02*
X2674000Y560000D01*
X2661100Y559900D02*
X2666000Y555000D01*
X2630200Y547200D02*
X2646000D01*
X2625000Y542000D02*
X2630200Y547200D01*
X2846000Y714050D02*
X2864500D01*
X2464000Y770000D02*
X2477500D01*
X899000Y875000D02*
X901000Y877000D01*
X909000D02*
X911000Y875000D01*
X909000Y877000D02*
Y897314D01*
X901000Y877000D02*
Y894000D01*
X890314Y916000D02*
X909000Y897314D01*
X887000Y908000D02*
X901000Y894000D01*
X852686Y916000D02*
X890314D01*
X856000Y908000D02*
X887000D01*
X823000Y886314D02*
X852686Y916000D01*
X831000Y883000D02*
X856000Y908000D01*
X823000Y736314D02*
Y886314D01*
X831000Y733000D02*
Y883000D01*
X794000Y707314D02*
X823000Y736314D01*
X802000Y704000D02*
X831000Y733000D01*
X794000Y671686D02*
Y707314D01*
X802000Y675000D02*
Y704000D01*
X794000Y671686D02*
X806686Y659000D01*
X802000Y675000D02*
X810000Y667000D01*
X806686Y659000D02*
X826686D01*
X810000Y667000D02*
X830000D01*
X826686Y659000D02*
X838000Y647686D01*
X830000Y667000D02*
X846000Y651000D01*
X838000Y605314D02*
Y647686D01*
X846000Y602000D02*
Y651000D01*
X801000Y568314D02*
X838000Y605314D01*
X809000Y565000D02*
X846000Y602000D01*
X801000Y488314D02*
Y568314D01*
X809000Y485000D02*
Y565000D01*
X789686Y477000D02*
X801000Y488314D01*
X793000Y469000D02*
X809000Y485000D01*
X619000Y477000D02*
X789686D01*
X600000Y496000D02*
X619000Y477000D01*
X616000Y469000D02*
X793000D01*
X595000Y490000D02*
X616000Y469000D01*
X585500Y510000D02*
X595000D01*
X600000Y496000D02*
Y505000D01*
X595000Y510000D02*
X600000Y505000D01*
X585500Y490000D02*
X595000D01*
X720000Y443500D02*
Y460000D01*
X660000Y443500D02*
Y460000D01*
X635000Y443500D02*
Y460000D01*
X720000D02*
X731000D01*
X660000D02*
X720000D01*
X635000D02*
X660000D01*
X580000D02*
X635000D01*
X735000Y385000D02*
Y456000D01*
X731000Y460000D02*
X735000Y456000D01*
X575000Y455000D02*
X580000Y460000D01*
X575000Y443500D02*
Y455000D01*
X2295000Y383000D02*
X2308000Y396000D01*
X1911000Y383000D02*
X2295000D01*
X1890000Y362000D02*
X1911000Y383000D01*
X2308000Y396000D02*
Y477000D01*
X2333000Y502000D01*
X2361000D01*
X2365000Y506000D01*
Y515000D01*
X2440000D01*
X2348500D02*
X2365000D01*
X2434000Y460000D02*
X2455000D01*
Y480000D01*
Y435000D02*
Y460000D01*
X2434000Y435000D02*
X2455000D01*
Y414000D02*
Y435000D01*
X2434000Y410000D02*
X2451000D01*
X2455000Y414000D01*
X2450000Y485000D02*
X2455000Y480000D01*
X2434000Y485000D02*
X2450000D01*
X2300000Y362000D02*
Y377000D01*
X2343000Y485000D02*
X2351500D01*
X2316000Y458000D02*
X2343000Y485000D01*
X2316000Y393000D02*
Y458000D01*
X2300000Y377000D02*
X2316000Y393000D01*
X2335000Y362000D02*
Y382000D01*
X2343000Y460000D02*
X2351500D01*
X2324000Y441000D02*
X2343000Y460000D01*
X2324000Y393000D02*
Y441000D01*
Y393000D02*
X2335000Y382000D01*
X2342000Y435000D02*
X2351500D01*
X2332000Y425000D02*
X2342000Y435000D01*
X2332000Y396000D02*
Y425000D01*
Y396000D02*
X2340000Y388000D01*
X2344000D01*
X2370000Y362000D01*
X2371000Y396000D02*
X2405000Y362000D01*
X2344000Y396000D02*
X2371000D01*
X2340000Y400000D02*
X2344000Y396000D01*
X2340000Y400000D02*
Y406000D01*
X2344000Y410000D01*
X2351500D01*
X2480000D02*
X2496000D01*
X2368500D02*
X2382000D01*
X2396900D01*
X2480000Y435000D02*
X2496000D01*
X2368500D02*
X2382000D01*
X2396900D01*
X2480000Y460000D02*
X2496000D01*
X2368500D02*
X2382000D01*
X2396900D01*
X2382000Y485000D02*
X2396900D01*
X2368500D02*
X2382000D01*
X2480000D02*
X2496000D01*
X2646000Y585300D02*
X2661700D01*
X2646000Y572600D02*
X2661400D01*
X2646000Y559900D02*
X2661100D01*
X2560000Y665000D02*
X2565000Y670000D01*
X2581500D01*
X2612000Y642000D02*
X2617900Y636100D01*
X2646000D01*
X2612000Y642000D02*
Y666000D01*
X2608000Y670000D02*
X2612000Y666000D01*
X2598500Y670000D02*
X2608000D01*
X2447000Y610000D02*
X2447000Y610000D01*
X2447000Y610000D02*
Y713000D01*
X2232000Y500000D02*
X2285000D01*
X2300000Y515000D01*
Y610000D02*
X2317000D01*
X2320000Y613000D01*
Y621500D01*
X2300000Y610000D02*
Y621500D01*
Y515000D02*
Y610000D01*
Y515000D02*
X2331500D01*
X2300000Y638500D02*
Y650000D01*
X2314000D01*
X2320000Y644000D01*
Y638500D02*
Y644000D01*
X2319000Y555000D02*
X2331500D01*
X2319000D02*
Y575000D01*
Y539000D02*
Y555000D01*
Y575000D02*
X2331500D01*
X2319000D02*
Y595000D01*
X2331500D01*
X2319000Y539000D02*
X2323000Y535000D01*
X2331500D01*
X2554000Y636100D02*
X2554100Y636000D01*
X2585000D01*
X2591000Y630000D01*
Y535000D02*
Y630000D01*
X2576000Y520000D02*
X2591000Y535000D01*
X2445000Y520000D02*
X2576000D01*
X2440000Y515000D02*
X2445000Y520000D01*
X2554000Y585300D02*
X2554300Y585000D01*
X2571000D01*
X2583000Y573000D01*
Y538000D02*
Y573000D01*
X2573000Y528000D02*
X2583000Y538000D01*
X2446000Y528000D02*
X2573000D01*
X2439000Y535000D02*
X2446000Y528000D01*
X2348500Y535000D02*
X2439000D01*
X2554000Y572600D02*
X2570400D01*
X2575000Y568000D01*
Y541000D02*
Y568000D01*
X2570000Y536000D02*
X2575000Y541000D01*
X2450000Y536000D02*
X2570000D01*
X2431000Y555000D02*
X2450000Y536000D01*
X2348500Y555000D02*
X2431000D01*
X2363550Y598550D02*
X2383000D01*
X2360000Y595000D02*
X2363550Y598550D01*
X2348500Y595000D02*
X2360000D01*
X2366850Y585850D02*
X2383000D01*
X2356000Y575000D02*
X2366850Y585850D01*
X2348500Y575000D02*
X2356000D01*
X2626000Y610850D02*
Y623550D01*
Y598150D02*
Y610850D01*
Y598150D02*
X2626150Y598000D01*
X2646000D01*
X2626000Y610850D02*
X2626150Y610700D01*
X2646000D01*
X2626000Y623550D02*
X2626150Y623400D01*
X2646000D01*
X2626000Y648950D02*
X2626150Y648800D01*
X2646000D01*
X2383000Y585850D02*
X2412150D01*
X2450800Y547200D01*
X2554000D01*
X2383000Y598550D02*
X2411450D01*
X2450100Y559900D01*
X2554000D01*
X2553450Y573150D02*
X2554000Y572600D01*
X2475000Y573150D02*
X2553450D01*
Y585850D02*
X2554000Y585300D01*
X2475000Y585850D02*
X2553450D01*
X2383000Y573150D02*
X2402850D01*
X2403000Y573000D01*
X2455150Y598550D02*
X2475000D01*
X2455000Y598700D02*
X2455150Y598550D01*
X2565000Y726000D02*
X2580000D01*
Y713500D02*
Y726000D01*
X2561000Y722000D02*
X2565000Y726000D01*
X2561000Y713500D02*
Y722000D01*
X2580000Y688000D02*
Y696500D01*
X2577000Y685000D02*
X2580000Y688000D01*
X2561000Y685000D02*
X2577000D01*
X2561000D02*
Y696500D01*
X2447150Y712850D02*
X2475000D01*
X2447000Y713000D02*
X2447150Y712850D01*
X2573000Y745000D02*
X2684000D01*
X2546000Y718000D02*
X2573000Y745000D01*
X2546000Y664000D02*
Y718000D01*
X2568000Y752000D02*
X2680000D01*
X2539000Y723000D02*
X2568000Y752000D01*
X2539000Y670000D02*
Y723000D01*
X2563000Y759000D02*
X2676000D01*
X2532000Y728000D02*
X2563000Y759000D01*
X2532000Y676000D02*
Y728000D01*
X2475000Y611250D02*
X2493250D01*
X2546000Y664000D01*
X2684000Y745000D02*
X2691000Y752000D01*
X2813000D01*
X2820000Y759000D01*
X2942000D01*
X2475000Y623950D02*
X2492950D01*
X2539000Y670000D01*
X2680000Y752000D02*
X2687000Y759000D01*
X2809000D01*
X2933500Y770000D02*
X2942000D01*
X2945000Y767000D01*
Y762000D02*
Y767000D01*
X2942000Y759000D02*
X2945000Y762000D01*
X2800500Y770000D02*
X2809000D01*
X2812000Y767000D01*
Y762000D02*
Y767000D01*
X2809000Y759000D02*
X2812000Y762000D01*
X2475000Y636650D02*
X2492650D01*
X2532000Y676000D01*
X2676000Y759000D02*
X2679000Y762000D01*
Y767000D01*
X2676000Y770000D02*
X2679000Y767000D01*
X2667500Y770000D02*
X2676000D01*
X2493350Y649350D02*
X2525000Y681000D01*
X2475000Y649350D02*
X2493350D01*
X2525000Y681000D02*
Y733000D01*
X2547000Y755000D01*
Y766000D01*
X2543000Y770000D02*
X2547000Y766000D01*
X2534500Y770000D02*
X2543000D01*
X2518000Y687000D02*
Y733000D01*
X2493000Y662000D02*
X2518000Y687000D01*
X2475050Y662000D02*
X2493000D01*
X2475000Y662050D02*
X2475050Y662000D01*
X2505000Y746000D02*
X2518000Y733000D01*
X2439000Y746000D02*
X2505000D01*
X2415000Y770000D02*
X2439000Y746000D01*
X2401500Y770000D02*
X2415000D01*
X2492750Y674750D02*
X2511000Y693000D01*
X2475000Y674750D02*
X2492750D01*
X2511000Y693000D02*
Y728000D01*
X2500000Y739000D02*
X2511000Y728000D01*
X2336000Y739000D02*
X2500000D01*
X2305000Y770000D02*
X2336000Y739000D01*
X2268500Y770000D02*
X2305000D01*
X2496000Y732000D02*
X2504000Y724000D01*
Y699000D02*
Y724000D01*
X2492450Y687450D02*
X2504000Y699000D01*
X2332096Y732000D02*
X2496000D01*
X2305096Y759000D02*
X2332096Y732000D01*
X2475000Y687450D02*
X2492450D01*
X2493150Y700150D02*
X2497000Y704000D01*
X2475000Y700150D02*
X2493150D01*
X2497000Y704000D02*
Y720000D01*
X2492000Y725000D02*
X2497000Y720000D01*
X2329196Y725000D02*
X2492000D01*
X2302196Y752000D02*
X2329196Y725000D01*
X2355000Y713000D02*
X2355150Y712850D01*
X2383000D01*
X2279000Y696000D02*
X2363750Y611250D01*
X2383000D01*
X2360950Y623950D02*
X2383000D01*
X2358149Y636650D02*
X2383000D01*
X2355349Y649350D02*
X2383000D01*
X2352548Y662050D02*
X2383000D01*
X2349748Y674750D02*
X2383000D01*
X2346947Y687450D02*
X2383000D01*
X2299297Y745000D02*
X2344147Y700150D01*
X2383000D01*
X2296397Y738000D02*
X2346947Y687450D01*
X2293498Y731000D02*
X2349748Y674750D01*
X2290598Y724000D02*
X2352548Y662050D01*
X2287699Y717000D02*
X2355349Y649350D01*
X2284799Y710000D02*
X2358149Y636650D01*
X2281900Y703000D02*
X2360950Y623950D01*
X671000Y284000D02*
X1582000D01*
X664000Y291000D02*
X671000Y284000D01*
X1582000D02*
X1610000Y312000D01*
X2153000Y480000D02*
X2164500D01*
X1782000Y500000D02*
X1793500D01*
X2235000Y510000D02*
Y537500D01*
Y510000D02*
X2235000Y510000D01*
X1950000Y650000D02*
X1961500D01*
X1978500Y650000D02*
X1990000D01*
X2001500D01*
X1993000Y670000D02*
X2001500D01*
X1990000Y650000D02*
Y667000D01*
X1993000Y670000D01*
X1993000D01*
X1990000Y638000D02*
Y650000D01*
X1136000Y582000D02*
X1161000Y607000D01*
X1136000Y561000D02*
Y582000D01*
X1132000Y557000D02*
X1136000Y561000D01*
X1109000Y557000D02*
X1132000D01*
X1143000Y433000D02*
Y444500D01*
X2177900Y703000D02*
X2281900D01*
X2180799Y710000D02*
X2284799D01*
X2183699Y717000D02*
X2287699D01*
X2186598Y724000D02*
X2290598D01*
X2189498Y731000D02*
X2293498D01*
X2192397Y738000D02*
X2296397D01*
X2195297Y745000D02*
X2299297D01*
X2175000Y696000D02*
X2279000D01*
X2198196Y752000D02*
X2302196D01*
X2191196Y759000D02*
X2198196Y752000D01*
X2170900Y710000D02*
X2177900Y703000D01*
X2173799Y717000D02*
X2180799Y710000D01*
X2176699Y724000D02*
X2183699Y717000D01*
X2179598Y731000D02*
X2186598Y724000D01*
X2182498Y738000D02*
X2189498Y731000D01*
X2185397Y745000D02*
X2192397Y738000D01*
X2188297Y752000D02*
X2195297Y745000D01*
X2168000Y703000D02*
X2175000Y696000D01*
X2047603Y710000D02*
X2170900D01*
X2044704Y703000D02*
X2168000D01*
X2050502Y717000D02*
X2173799D01*
X2053402Y724000D02*
X2176699D01*
X2056302Y731000D02*
X2179598D01*
X2059201Y738000D02*
X2182498D01*
X2062101Y745000D02*
X2185397D01*
X2065000Y752000D02*
X2188297D01*
X2040603Y717000D02*
X2047603Y710000D01*
X2037703D02*
X2044704Y703000D01*
X2043503Y724000D02*
X2050502Y717000D01*
X2046402Y731000D02*
X2053402Y724000D01*
X2049301Y738000D02*
X2056302Y731000D01*
X2052201Y745000D02*
X2059201Y738000D01*
X2055101Y752000D02*
X2062101Y745000D01*
X2058000Y759000D02*
X2065000Y752000D01*
X2201000Y759000D02*
X2305096D01*
X2190000Y770000D02*
X2201000Y759000D01*
X2135500Y770000D02*
X2190000D01*
X2068000Y759000D02*
X2191196D01*
X2057000Y770000D02*
X2068000Y759000D01*
X2002500Y770000D02*
X2057000D01*
X1864000Y530000D02*
X1864000Y530000D01*
X1864000Y530000D02*
Y557500D01*
X1619000Y658000D02*
Y670000D01*
X1622000Y690000D02*
X1622000D01*
X1619000Y687000D02*
X1622000Y690000D01*
X1619000Y670000D02*
Y687000D01*
X1622000Y690000D02*
X1630500D01*
X1579000Y670000D02*
X1590500D01*
X1619000Y670000D02*
X1630500D01*
X1607500D02*
X1619000D01*
X1914603Y710000D02*
X2037703D01*
X1917502Y717000D02*
X2040603D01*
X1920402Y724000D02*
X2043503D01*
X1923302Y731000D02*
X2046402D01*
X1926201Y738000D02*
X2049301D01*
X1929100Y745000D02*
X2052201D01*
X1932000Y752000D02*
X2055101D01*
X1907603Y717000D02*
X1914603Y710000D01*
X1910502Y724000D02*
X1917502Y717000D01*
X1913402Y731000D02*
X1920402Y724000D01*
X1916302Y738000D02*
X1923302Y731000D01*
X1919201Y745000D02*
X1926201Y738000D01*
X1922101Y752000D02*
X1929100Y745000D01*
X1925000Y759000D02*
X1932000Y752000D01*
X1784503Y717000D02*
X1907603D01*
X1787402Y724000D02*
X1910502D01*
X1790302Y731000D02*
X1913402D01*
X1793201Y738000D02*
X1916302D01*
X1796100Y745000D02*
X1919201D01*
X1799000Y752000D02*
X1922101D01*
X1777502Y724000D02*
X1784503Y717000D01*
X1780402Y731000D02*
X1787402Y724000D01*
X1783302Y738000D02*
X1790302Y731000D01*
X1786201Y745000D02*
X1793201Y738000D01*
X1789100Y752000D02*
X1796100Y745000D01*
X1792000Y759000D02*
X1799000Y752000D01*
X1654402Y724000D02*
X1777502D01*
X1657301Y731000D02*
X1780402D01*
X1660201Y738000D02*
X1783302D01*
X1663100Y745000D02*
X1786201D01*
X1666000Y752000D02*
X1789100D01*
X1647402Y731000D02*
X1654402Y724000D01*
X1650301Y738000D02*
X1657301Y731000D01*
X1653201Y745000D02*
X1660201Y738000D01*
X1656100Y752000D02*
X1663100Y745000D01*
X1659000Y759000D02*
X1666000Y752000D01*
X1869500Y770000D02*
X1924000D01*
X1935000Y759000D01*
X2058000D01*
X1736500Y770000D02*
X1791000D01*
X1802000Y759000D01*
X1925000D01*
X1603500Y770000D02*
X1658000D01*
X1669000Y759000D01*
X1792000D01*
X1524301Y731000D02*
X1647402D01*
X1527201Y738000D02*
X1650301D01*
X1530101Y745000D02*
X1653201D01*
X1533000Y752000D02*
X1656100D01*
X1517301Y738000D02*
X1524301Y731000D01*
X1520201Y745000D02*
X1527201Y738000D01*
X1523100Y752000D02*
X1530101Y745000D01*
X1526000Y759000D02*
X1533000Y752000D01*
X1397101Y745000D02*
X1520201D01*
X1394201Y738000D02*
X1517301D01*
X1400000Y752000D02*
X1523100D01*
X1390101D02*
X1397101Y745000D01*
X1387201D02*
X1394201Y738000D01*
X1393000Y759000D02*
X1400000Y752000D01*
X1264000Y745000D02*
X1387201D01*
X1266899Y752000D02*
X1390101D01*
X1259900Y759000D02*
X1266899Y752000D01*
X1257000D02*
X1264000Y745000D01*
X1135000Y752000D02*
X1257000D01*
X1128000Y759000D02*
X1135000Y752000D01*
X1004000Y759000D02*
X1128000D01*
X938500Y770000D02*
X993000D01*
X1004000Y759000D01*
X1071500Y770000D02*
X1126000D01*
X1137000Y759000D01*
X1259900D01*
X1204500Y770000D02*
X1259000D01*
X1270000Y759000D01*
X1393000D01*
X1337500Y770000D02*
X1392000D01*
X1403000Y759000D01*
X1526000D01*
X1536000D02*
X1659000D01*
X1525000Y770000D02*
X1536000Y759000D01*
X1470500Y770000D02*
X1525000D01*
X1200000Y677000D02*
X1211500D01*
X820000Y695000D02*
X831500D01*
X1228500Y677000D02*
X1240000D01*
X1251500D01*
X1240000D02*
Y697000D01*
X1240000Y697000D01*
X1251500D01*
X1240000Y697000D02*
Y710000D01*
X1253000Y723000D01*
X1533000D01*
X1541000Y715000D01*
Y589000D02*
Y715000D01*
X1520000Y568000D02*
X1541000Y589000D01*
X1520000Y544000D02*
Y568000D01*
X1515000Y539000D02*
X1520000Y544000D01*
X1485000Y543000D02*
Y564500D01*
Y543000D02*
X1489000Y539000D01*
X1515000D01*
X1451000Y542000D02*
Y564500D01*
X1370000Y462500D02*
Y487000D01*
X1325000Y436000D02*
Y444900D01*
Y436000D02*
X1329000Y432000D01*
X1350000D01*
Y444500D01*
X1370000Y432000D02*
Y445500D01*
X1350000Y432000D02*
X1370000D01*
X1267800Y518200D02*
Y531000D01*
Y518200D02*
X1272000Y514000D01*
X1320000D01*
X1325000Y509000D01*
Y482000D02*
Y495500D01*
Y509000D01*
X1350000Y461500D02*
Y492000D01*
X1346000Y496000D02*
X1350000Y492000D01*
X1325500Y496000D02*
X1346000D01*
X1325000Y495500D02*
X1325500Y496000D01*
X1105000Y561000D02*
X1109000Y557000D01*
X1105000Y561000D02*
Y582500D01*
X1161000Y607000D02*
Y733000D01*
X1153000Y741000D02*
X1161000Y733000D01*
X873000Y741000D02*
X1153000D01*
X860000Y728000D02*
X873000Y741000D01*
X860000Y715000D02*
Y728000D01*
X1071000Y560000D02*
Y582500D01*
X970000Y450000D02*
X990000D01*
Y463500D01*
Y480500D02*
Y505000D01*
X970000Y450000D02*
Y462500D01*
X949000Y450000D02*
X970000D01*
X945000Y454000D02*
X949000Y450000D01*
X945000Y454000D02*
Y462900D01*
Y513500D02*
X945500Y514000D01*
X966000D01*
X970000Y510000D01*
Y479500D02*
Y510000D01*
X945000Y513500D02*
Y527000D01*
Y500000D02*
Y513500D01*
X940000Y532000D02*
X945000Y527000D01*
X892000Y532000D02*
X940000D01*
X887800Y536200D02*
X892000Y532000D01*
X887800Y536200D02*
Y549000D01*
X860000Y715000D02*
X871500D01*
X860000Y715000D02*
X860000Y715000D01*
X860000Y695000D02*
Y715000D01*
Y695000D02*
X871500D01*
X848500D02*
X860000D01*
X1297500Y770000D02*
X1309000D01*
X1320500D01*
X1309000D02*
Y798000D01*
X1302000Y805000D02*
X1309000Y798000D01*
X1302000Y805000D02*
Y831000D01*
X2863000Y775000D02*
X2868000Y770000D01*
X2876500D01*
X2863000Y775000D02*
Y881000D01*
X1164500Y770000D02*
X1176000D01*
X1187500D01*
X1176000D02*
Y798000D01*
X1169000Y805000D02*
X1176000Y798000D01*
X1169000Y805000D02*
Y831000D01*
X2730000Y775000D02*
X2735000Y770000D01*
X2743500D01*
X2730000Y775000D02*
Y881000D01*
X1031500Y770000D02*
X1043000D01*
X1054500D01*
X1043000D02*
Y798000D01*
X1036000Y805000D02*
X1043000Y798000D01*
X1036000Y805000D02*
Y831000D01*
X2597000Y775000D02*
X2602000Y770000D01*
X2610500D01*
X2597000Y775000D02*
Y881000D01*
X898500Y770000D02*
X910000D01*
X921500D01*
X910000D02*
Y798000D01*
X903000Y805000D02*
X910000Y798000D01*
X903000Y805000D02*
Y831000D01*
X1829500Y770000D02*
X1841000D01*
X1852500D01*
X1841000D02*
Y798000D01*
X1834000Y805000D02*
X1841000Y798000D01*
X1834000Y805000D02*
Y831000D01*
X2331000Y775000D02*
X2336000Y770000D01*
X2344500D01*
X2331000Y775000D02*
Y881000D01*
X1696500Y770000D02*
X1708000D01*
X1719500D01*
X1708000D02*
Y798000D01*
X1701000Y805000D02*
X1708000Y798000D01*
X1701000Y805000D02*
Y831000D01*
X2198000Y775000D02*
X2203000Y770000D01*
X2211500D01*
X2198000Y775000D02*
Y881000D01*
X1563500Y770000D02*
X1575000D01*
X1586500D01*
X1575000D02*
Y798000D01*
X1568000Y805000D02*
X1575000Y798000D01*
X1568000Y805000D02*
Y831000D01*
X2065000Y775000D02*
X2070000Y770000D01*
X2078500D01*
X2065000Y775000D02*
Y881000D01*
X1430500Y770000D02*
X1442000D01*
X1453500D01*
X1442000D02*
Y798000D01*
X1435000Y805000D02*
X1442000Y798000D01*
X1435000Y805000D02*
Y831000D01*
X1932000Y775000D02*
X1937000Y770000D01*
X1945500D01*
X1932000Y775000D02*
Y881000D01*
X2361500Y770000D02*
X2373000D01*
X2384500D01*
X2373000D02*
Y798000D01*
X2366000Y805000D02*
X2373000Y798000D01*
X2366000Y805000D02*
Y831000D01*
X1799000Y775000D02*
X1804000Y770000D01*
X1812500D01*
X1799000Y775000D02*
Y881000D01*
X2228500Y770000D02*
X2240000D01*
X2251500D01*
X2240000D02*
Y798000D01*
X2233000Y805000D02*
X2240000Y798000D01*
X2233000Y805000D02*
Y831000D01*
X1666000Y775000D02*
X1671000Y770000D01*
X1679500D01*
X1666000Y775000D02*
Y881000D01*
X2095500Y770000D02*
X2107000D01*
X2118500D01*
X2107000D02*
Y798000D01*
X2100000Y805000D02*
X2107000Y798000D01*
X2100000Y805000D02*
Y831000D01*
X1533000Y775000D02*
X1538000Y770000D01*
X1546500D01*
X1533000Y775000D02*
Y881000D01*
X1962500Y770000D02*
X1974000D01*
X1985500D01*
X1974000D02*
Y798000D01*
X1967000Y805000D02*
X1974000Y798000D01*
X1967000Y805000D02*
Y831000D01*
X1400000Y775000D02*
X1405000Y770000D01*
X1413500D01*
X1400000Y775000D02*
Y881000D01*
X2893500Y770000D02*
X2905000D01*
X2916500D01*
X2905000D02*
Y798000D01*
X2898000Y805000D02*
X2905000Y798000D01*
X2898000Y805000D02*
Y831000D01*
X1267000Y775000D02*
X1272000Y770000D01*
X1280500D01*
X1267000Y775000D02*
Y881000D01*
X2760500Y770000D02*
X2772000D01*
X2783500D01*
X2772000D02*
Y798000D01*
X2765000Y805000D02*
X2772000Y798000D01*
X2765000Y805000D02*
Y831000D01*
X1134000Y775000D02*
X1139000Y770000D01*
X1147500D01*
X1134000Y775000D02*
Y881000D01*
X2627500Y770000D02*
X2639000D01*
X2650500D01*
X2639000D02*
Y798000D01*
X2632000Y805000D02*
X2639000Y798000D01*
X2632000Y805000D02*
Y831000D01*
X1001000Y775000D02*
X1006000Y770000D01*
X1014500D01*
X1001000Y775000D02*
Y881000D01*
X868000Y775000D02*
Y881000D01*
X873000Y770000D02*
X881500D01*
X868000Y775000D02*
X873000Y770000D01*
X2499000Y805000D02*
Y831000D01*
Y805000D02*
X2506000Y798000D01*
Y770000D02*
Y798000D01*
Y770000D02*
X2517500D01*
X2494500D02*
X2506000D01*
X2720000Y285000D02*
Y331000D01*
X2705000Y285000D02*
Y314000D01*
X2694000Y325000D02*
X2705000Y314000D01*
X2694000Y325000D02*
Y374000D01*
X2700000Y380000D01*
X2778000Y268000D02*
X2785000Y275000D01*
X2294000Y268000D02*
X2778000D01*
X2283000Y279000D02*
X2294000Y268000D01*
X2720000Y331000D02*
X2755000Y366000D01*
X2747000Y305000D02*
Y344000D01*
X2765000Y362000D01*
Y373000D01*
X2785000Y379000D02*
X2801000Y395000D01*
X2785000Y275000D02*
Y379000D01*
Y407000D02*
Y426500D01*
X2773000Y395000D02*
X2785000Y407000D01*
X2755000Y395000D02*
X2773000D01*
X2640000Y443500D02*
Y460000D01*
X2645000Y465000D01*
X2700000D01*
Y443500D02*
Y465000D01*
X2725000D01*
X2725000Y443500D02*
Y465000D01*
X2725000Y465000D02*
X2725000Y465000D01*
X2725000Y465000D02*
X2785000D01*
Y443500D02*
Y465000D01*
X2679500Y409000D02*
Y424000D01*
X2764500Y409000D02*
Y424000D01*
X2755000Y366000D02*
Y395000D01*
Y446000D01*
X2670000Y399000D02*
Y446000D01*
Y399000D02*
X2674000Y395000D01*
X2700000D01*
Y426500D01*
Y380000D02*
Y395000D01*
X2712000Y355000D02*
X2725000Y368000D01*
Y409000D01*
Y426500D01*
X2745500Y412500D02*
Y424000D01*
X2742000Y409000D02*
X2745500Y412500D01*
X2725000Y409000D02*
X2742000D01*
X2660500Y410000D02*
Y424000D01*
X2644000Y410000D02*
X2660500D01*
X2640000Y414000D02*
X2644000Y410000D01*
X2640000Y414000D02*
Y426500D01*
X2640000Y426500D01*
X2660500Y390500D02*
Y410000D01*
Y390500D02*
X2677000Y374000D01*
Y305000D02*
Y374000D01*
X720000Y400000D02*
Y426500D01*
X715000Y395000D02*
X720000Y400000D01*
X690000Y395000D02*
X715000D01*
X690000D02*
Y446000D01*
Y366000D02*
Y395000D01*
X634000Y276000D02*
X1609000D01*
X664000Y291000D02*
Y340000D01*
X690000Y366000D01*
X660000Y409000D02*
X677000D01*
X680500Y412500D01*
Y424000D01*
X660000Y409000D02*
Y426500D01*
Y368000D02*
Y409000D01*
X647000Y355000D02*
X660000Y368000D01*
X612000Y305000D02*
Y374000D01*
X595500Y390500D02*
X612000Y374000D01*
X595500Y390500D02*
Y410000D01*
X629000Y281000D02*
X634000Y276000D01*
X1609000D02*
X1645000Y312000D01*
X629000Y281000D02*
Y374000D01*
X635000Y380000D01*
Y395000D01*
Y426500D01*
X609000Y395000D02*
X635000D01*
X605000Y399000D02*
X609000Y395000D01*
X605000Y399000D02*
Y446000D01*
X575000Y426500D02*
X575000Y426500D01*
X575000Y414000D02*
Y426500D01*
Y414000D02*
X579000Y410000D01*
X595500D01*
Y424000D01*
X699500Y409000D02*
Y424000D01*
X614500Y409000D02*
Y424000D01*
X2283000Y279000D02*
Y293000D01*
X2160000Y312000D02*
X2160000Y312000D01*
X2160000Y278000D02*
Y312000D01*
X2150000Y268000D02*
X2160000Y278000D01*
X526000Y268000D02*
X2150000D01*
X520000Y274000D02*
X526000Y268000D01*
X520000Y274000D02*
Y350000D01*
X473000Y397000D02*
X520000Y350000D01*
X473000Y397000D02*
Y424500D01*
X450000Y460000D02*
X469000D01*
X473000Y456000D01*
Y441500D02*
Y456000D01*
X2230000Y312000D02*
X2230000Y312000D01*
X2230000Y268000D02*
Y312000D01*
X2222310Y260310D02*
X2230000Y268000D01*
X354000Y260310D02*
X2222310D01*
X347000Y267310D02*
X354000Y260310D01*
X347000Y267310D02*
Y370000D01*
X340000Y377000D02*
X347000Y370000D01*
X323500Y377000D02*
X340000D01*
X2265000Y312000D02*
X2265000Y312000D01*
X2265000Y268000D02*
Y312000D01*
Y268000D02*
X2272000Y261000D01*
X2951000D01*
X2957000Y267000D01*
Y343000D01*
X2991000Y377000D01*
X3001500D01*
X3038000Y402200D02*
X3038100Y402300D01*
X3038000Y382000D02*
Y402200D01*
X3033000Y377000D02*
X3038000Y382000D01*
X3018500Y377000D02*
X3033000D01*
X284300Y427700D02*
X290000Y422000D01*
X266900Y427700D02*
X284300D01*
X290000Y381000D02*
Y422000D01*
Y381000D02*
X294000Y377000D01*
X306500D01*
X2855000Y450000D02*
Y465000D01*
Y395000D02*
Y412900D01*
Y395000D02*
X2865000D01*
X2843500D02*
X2855000D01*
X2870000Y400000D02*
Y424000D01*
X2874650Y428650D01*
X2886500D01*
X2865000Y395000D02*
X2870000Y400000D01*
X450000Y391000D02*
Y406000D01*
Y443100D02*
Y460000D01*
X440000D02*
X450000D01*
X435000Y445000D02*
Y455000D01*
X431350Y441350D02*
X435000Y445000D01*
X418500Y441350D02*
X431350D01*
X435000Y455000D02*
X440000Y460000D01*
X2910000Y428650D02*
X2933500D01*
X2910000Y416000D02*
Y425000D01*
Y416000D02*
X2921750Y415950D01*
X2933500D01*
X371500Y454050D02*
X383250D01*
X395000Y454000D01*
Y445000D02*
Y454000D01*
X391350Y441350D02*
X395000Y445000D01*
X371500Y441350D02*
X391350D01*
X702500Y516000D02*
X729000D01*
X677000Y498000D02*
X685500D01*
X674000Y501000D02*
X677000Y498000D01*
X674000Y526000D02*
X678000Y530000D01*
X715000D01*
X735500Y550500D01*
X751000D01*
X674000Y501000D02*
Y516000D01*
Y526000D01*
Y516000D02*
X685500D01*
X502000D02*
X515500D01*
X532500Y498000D02*
X541000D01*
X545000Y502000D01*
Y540000D02*
X555500Y550500D01*
X581000D01*
X545000Y502000D02*
Y516000D01*
Y540000D01*
X532500Y516000D02*
X545000D01*
X362500D02*
X375000D01*
Y540000D01*
Y502000D02*
Y516000D01*
X385500Y550500D02*
X411000D01*
X375000Y540000D02*
X385500Y550500D01*
X371000Y498000D02*
X375000Y502000D01*
X362500Y498000D02*
X371000D01*
X332000Y516000D02*
X345500D01*
X618000D02*
X631500D01*
X314100Y515000D02*
X320000D01*
X314100Y490000D02*
X324000D01*
X327000Y493000D01*
X320000Y515000D02*
X327000Y508000D01*
Y493000D02*
Y498000D01*
Y508000D01*
Y498000D02*
X345500D01*
X263000Y515000D02*
X277000D01*
X263000Y490000D02*
X277000D01*
X502000Y498000D02*
X515500D01*
X618000D02*
X631500D01*
X702500D02*
X716000D01*
X648500Y516000D02*
X658000D01*
X662000Y512000D01*
Y490000D02*
X667000Y485000D01*
X723000D01*
X730000Y492000D01*
Y501000D01*
X735500Y506500D01*
X751000D01*
X662000Y490000D02*
Y498000D01*
Y512000D01*
X648500Y498000D02*
X662000D01*
X430000Y533000D02*
Y545000D01*
X455000Y533000D02*
Y545000D01*
Y484000D02*
Y495900D01*
Y484000D02*
X541000D01*
X553000Y496000D01*
Y505000D01*
X558000Y510000D01*
X568500D01*
X542960Y475960D02*
X557000Y490000D01*
X568500D01*
X430000Y483000D02*
Y495900D01*
Y483000D02*
X437040Y475960D01*
X542960D01*
X430000Y495900D02*
Y515000D01*
D38*
X2889000Y881000D02*
X3015000Y755000D01*
X2863000Y881000D02*
X2889000D01*
X2982500Y544000D02*
X2995000D01*
Y559000D01*
X2991000Y563000D02*
X2995000Y559000D01*
X2982500Y563000D02*
X2991000D01*
X2538000Y343000D02*
X2545000Y350000D01*
X1557000Y343000D02*
X2538000D01*
X2539000Y331000D02*
X2545000Y325000D01*
X1552000Y331000D02*
X2539000D01*
X2920000Y495000D02*
X2925000Y490000D01*
X2920000Y495000D02*
Y514000D01*
X2924650Y518650D01*
X2938500D01*
X2905000Y490000D02*
X2911000Y496000D01*
Y527000D01*
X2906650Y531350D02*
X2911000Y527000D01*
X2891500Y531350D02*
X2906650D01*
X2965450Y544050D02*
X2965500Y544000D01*
X2634000Y685000D02*
X2646500D01*
X2610000Y710000D02*
X2627000D01*
X2920000Y601000D02*
Y615000D01*
X2925000Y620000D01*
X2934500D01*
X2951195Y619900D02*
X2955195D01*
X2957195Y621900D01*
Y637900D01*
X1532000Y368000D02*
X1557000Y343000D01*
X1467000Y368000D02*
X1532000D01*
X1462000Y373000D02*
X1467000Y368000D01*
X1435000Y373000D02*
X1462000D01*
X1418000Y356000D02*
X1435000Y373000D01*
X1313000Y356000D02*
X1418000D01*
X1527000D02*
X1552000Y331000D01*
X1448000Y356000D02*
X1527000D01*
X625000Y560000D02*
X647140D01*
X625000D02*
Y577000D01*
X455000Y560000D02*
X477140D01*
X455000D02*
Y577000D01*
X285000Y561000D02*
Y577000D01*
Y561000D02*
X286000Y560000D01*
X307140D01*
X285000Y542000D02*
X295000Y532000D01*
Y477000D02*
Y532000D01*
Y477000D02*
X302000Y470000D01*
X314000D01*
X285000Y542000D02*
Y558000D01*
X2127000Y290000D02*
X2130000D01*
X2113000Y276000D02*
X2127000Y290000D01*
X1820000Y276000D02*
X2113000D01*
X1803000Y293000D02*
X1820000Y276000D01*
X3020000Y473500D02*
Y485000D01*
X3003000D02*
X3020000D01*
X3000000Y482000D02*
X3003000Y485000D01*
X3000000Y473500D02*
Y482000D01*
Y445000D02*
Y456500D01*
Y445000D02*
X3017000D01*
X3020000Y448000D01*
Y456500D01*
X343500Y470000D02*
X355000D01*
Y455000D02*
Y470000D01*
X352000Y452000D02*
X355000Y455000D01*
X343500Y452000D02*
X352000D01*
X314000D02*
X326500D01*
X314000D02*
Y470000D01*
Y431000D02*
Y452000D01*
Y470000D02*
X326500D01*
X314000Y431000D02*
X329840Y415160D01*
X356160D01*
X357000Y416000D01*
X357050Y415950D01*
X371500D01*
X434950D02*
X435000Y416000D01*
X418500Y415950D02*
X434950D01*
X435000Y416000D02*
Y424000D01*
Y389436D02*
Y416000D01*
Y389436D02*
X494436Y330000D01*
X430350Y428650D02*
X435000Y424000D01*
X418500Y428650D02*
X430350D01*
X2870000Y454000D02*
X2870050Y454050D01*
X2886500D01*
X2870000Y454000D02*
Y461000D01*
Y445000D02*
Y454000D01*
X2929436Y330000D02*
X2977000Y377564D01*
Y455000D01*
X2966000Y466000D02*
X2977000Y455000D01*
X2875000Y466000D02*
X2966000D01*
X2870000Y461000D02*
X2875000Y466000D01*
X2870000Y445000D02*
X2873650Y441350D01*
X2886500D01*
X2910050Y454050D02*
X2933500D01*
X2909950Y428950D02*
X2910000Y429000D01*
X2909950Y415950D02*
Y428950D01*
X2886500Y415950D02*
X2909950D01*
X2910000Y416000D01*
X395000Y454000D02*
X395050Y454050D01*
X418500D01*
X411000Y569500D02*
X424500D01*
X352860Y560000D02*
X375000D01*
X389000D01*
X375000D02*
Y583000D01*
X415000Y623000D01*
X285000Y577000D02*
X295000Y587000D01*
Y623000D01*
X295000Y623000D01*
X465000Y623000D02*
X465000Y623000D01*
X465000Y587000D02*
Y623000D01*
X455000Y577000D02*
X465000Y587000D01*
X545000Y583000D02*
X585000Y623000D01*
X545000Y560000D02*
Y583000D01*
Y560000D02*
X559000D01*
X522860D02*
X545000D01*
X635000Y623000D02*
X635000Y623000D01*
X635000Y587000D02*
Y623000D01*
X625000Y577000D02*
X635000Y587000D01*
X715000Y583000D02*
X755000Y623000D01*
X715000Y560000D02*
Y583000D01*
Y560000D02*
X729000D01*
X692860D02*
X715000D01*
X581000Y569500D02*
X594500D01*
X751000Y525500D02*
X764500D01*
X729000Y516000D02*
X771000D01*
X775000Y520000D01*
Y563000D01*
X751000Y569500D02*
X768500D01*
X775000Y563000D01*
D39*
X2890000Y563000D02*
X2890000Y563000D01*
X2955000D01*
X2965500D01*
X2955000Y544050D02*
Y563000D01*
X2875000Y540700D02*
X2878350Y544050D01*
X2891500D01*
X2878350Y531350D02*
X2891500D01*
X2875000Y534700D02*
X2878350Y531350D01*
X2875000Y534700D02*
Y540700D01*
X2955000Y522000D02*
Y528000D01*
X2951650Y531350D02*
X2955000Y528000D01*
X2938500Y531350D02*
X2951650D01*
X2938500Y518650D02*
X2951650D01*
X2955000Y522000D01*
Y544050D02*
X2965450D01*
X2938500D02*
X2955000D01*
X2835000Y552450D02*
X2835050Y552500D01*
X2835000Y541000D02*
Y552450D01*
X2743000Y485050D02*
X2743050Y485000D01*
X2810950Y433500D02*
X2811000Y433550D01*
Y445000D01*
X2736950Y525000D02*
X2737000Y525050D01*
X2692950Y525000D02*
X2693000Y525050D01*
X2759000Y504550D02*
Y516000D01*
X2758950Y504500D02*
X2759000Y504550D01*
X2715000D02*
Y516000D01*
X2714950Y504500D02*
X2715000Y504550D01*
X2795000Y604950D02*
X2795050Y605000D01*
X2795000Y593500D02*
Y604950D01*
X2778000Y676000D02*
X2778050Y675950D01*
X2795500D01*
X2725000Y710000D02*
Y721500D01*
Y710000D02*
X2745000D01*
X2702000D02*
X2725000D01*
X2745000Y710000D02*
Y721500D01*
X2745000Y710000D02*
X2745000Y710000D01*
X2663500Y685000D02*
X2674000D01*
X2677000Y688000D01*
Y710000D01*
X2688000D01*
X2664100D02*
X2677000D01*
X2688000D02*
X2688000Y710000D01*
X2920000Y601000D02*
X2958500D01*
X2983695Y631400D02*
X2984195Y631900D01*
X2464000Y770000D02*
Y881000D01*
D40*
X2794500Y565000D02*
X2795000Y565500D01*
Y576500D01*
X2794500Y565000D02*
X2805000D01*
X2784000D02*
X2794500D01*
X2784000Y565000D02*
X2784000Y565000D01*
X2805000D02*
X2809000Y561000D01*
Y553100D02*
Y561000D01*
X2723840Y600000D02*
X2723840Y600000D01*
X2710000Y600000D02*
X2723840D01*
X2707000Y597000D02*
X2710000Y600000D01*
X2707000Y587000D02*
Y597000D01*
Y587000D02*
X2712000Y582000D01*
X2767000D01*
X2784000Y565000D01*
Y553100D02*
Y565000D01*
X2737000Y566000D02*
X2755000D01*
X2759000Y562000D01*
Y553100D02*
Y562000D01*
X2710000Y630000D02*
X2723840D01*
X2700000Y620000D02*
X2710000Y630000D01*
X2700000Y584000D02*
Y620000D01*
Y584000D02*
X2709000Y575000D01*
X2728000D01*
X2737000Y566000D01*
Y553500D02*
Y566000D01*
X2693000Y567000D02*
X2694000Y566000D01*
X2710000D01*
X2715000Y561000D01*
Y553100D02*
Y561000D01*
X2693000Y567000D02*
Y643000D01*
Y553500D02*
Y567000D01*
X2710000Y660000D02*
X2723840D01*
X2693000Y643000D02*
X2710000Y660000D01*
X2744160D02*
X2755000D01*
X2755000Y660000D01*
X2757000Y662000D01*
Y696000D01*
X2775050Y714050D01*
X2795500D01*
X2744160Y630000D02*
X2755000D01*
X2763000Y638000D01*
Y689000D01*
X2775350Y701350D01*
X2795500D01*
X2744160Y600000D02*
X2744160Y600000D01*
X2755000D01*
X2769000Y614000D01*
Y683000D01*
X2774650Y688650D01*
X2795500D01*
X2958500Y601000D02*
X2958500Y601000D01*
X2900000Y685000D02*
X2926500D01*
X2896350Y688650D02*
X2900000Y685000D01*
X2864500Y688650D02*
X2896350D01*
X2900000Y705000D02*
X2926500D01*
X2896350Y701350D02*
X2900000Y705000D01*
X2864500Y701350D02*
X2896350D01*
X2864500Y675950D02*
X2877050D01*
X2880000Y673000D01*
Y592000D02*
Y673000D01*
X2876000Y588000D02*
X2880000Y592000D01*
X2854800Y588000D02*
X2876000D01*
X2842000Y575200D02*
X2854800Y588000D01*
X2828000Y667000D02*
Y694000D01*
X2820650Y701350D02*
X2828000Y694000D01*
X2795500Y701350D02*
X2820650D01*
X2795500Y688650D02*
X2815350D01*
X2821000Y683000D01*
Y664000D02*
Y683000D01*
Y664000D02*
X2830000Y655000D01*
Y612600D02*
Y655000D01*
Y612600D02*
X2842000Y600600D01*
X2828000Y667000D02*
X2842000Y653000D01*
Y626000D02*
Y653000D01*
X2795500Y714050D02*
X2826950D01*
X2835000Y706000D01*
Y670000D02*
Y706000D01*
Y670000D02*
X2855000Y650000D01*
Y613000D02*
Y650000D01*
Y613000D02*
X2867400Y600600D01*
X2943695Y705000D02*
X2956195D01*
X2943695Y685000D02*
X2956195D01*
X2960195Y681000D01*
Y665900D02*
Y681000D01*
X2925695Y639000D02*
X2926695Y638000D01*
X2924695Y652000D02*
X2924695Y652000D01*
X2935195D01*
X2924695Y638000D02*
Y652000D01*
Y666000D01*
X2924695Y666000D01*
X2935195D01*
X2926695Y638000D02*
X2935195D01*
X2950195Y637900D02*
X2957195D01*
X2957195D01*
X2983695Y671400D02*
X2984195Y670900D01*
X2972595Y671400D02*
X2983695D01*
X2982695Y646400D02*
X2983195Y646900D01*
X2972595Y646400D02*
X2982695D01*
X2957195Y637900D02*
X2965695Y646400D01*
X2972595D01*
X2983695Y686400D02*
X2984195Y686900D01*
X2972595Y686400D02*
X2983695D01*
X2972595Y631400D02*
X2983695D01*
X2951195Y665900D02*
X2960195D01*
X2964695Y661400D01*
X2972595D01*
X2964695Y656400D02*
X2972595D01*
X2951195Y651900D02*
X2960195D01*
X2964695Y656400D01*
D41*
X2976195Y600900D02*
X3006695D01*
D42*
X1234000Y307500D02*
Y310000D01*
X1231500Y305000D02*
X1234000Y307500D01*
Y300000D02*
Y302500D01*
X1231500Y305000D02*
X1234000Y302500D01*
Y310000D02*
X1255000Y331000D01*
X1506000D01*
X1521000Y316000D01*
D43*
X1219000Y299000D02*
X1231000D01*
X1247000Y362000D02*
X1274000D01*
X1185000Y300000D02*
X1247000Y362000D01*
X964812Y300000D02*
X1185000D01*
X1521000Y301000D02*
Y316000D01*
X934812Y330000D02*
X964812Y300000D01*
X1274000Y362000D02*
Y376000D01*
D44*
X735000Y385000D02*
X834000D01*
X682000Y332000D02*
X735000Y385000D01*
X682000Y305000D02*
Y332000D01*
D45*
X300000Y300000D02*
D03*
Y885000D02*
D03*
X3005000Y300000D02*
D03*
Y885000D02*
D03*
D46*
X1960000Y312000D02*
D03*
Y362000D02*
D03*
X1995000D02*
D03*
Y312000D02*
D03*
X2030000Y362000D02*
D03*
Y312000D02*
D03*
X2065000Y362000D02*
D03*
Y312000D02*
D03*
X2100000Y362000D02*
D03*
Y312000D02*
D03*
X1785000D02*
D03*
Y362000D02*
D03*
X1820000D02*
D03*
Y312000D02*
D03*
X1855000Y362000D02*
D03*
Y312000D02*
D03*
X1890000Y362000D02*
D03*
Y312000D02*
D03*
X1925000Y362000D02*
D03*
Y312000D02*
D03*
X1750000D02*
D03*
Y362000D02*
D03*
X1715000Y312000D02*
D03*
Y362000D02*
D03*
X1680000Y312000D02*
D03*
Y362000D02*
D03*
X1645000Y312000D02*
D03*
Y362000D02*
D03*
X1610000D02*
D03*
Y312000D02*
D03*
X2160000D02*
D03*
Y362000D02*
D03*
X2195000D02*
D03*
Y312000D02*
D03*
X2230000Y362000D02*
D03*
Y312000D02*
D03*
X2265000Y362000D02*
D03*
Y312000D02*
D03*
X2300000Y362000D02*
D03*
Y312000D02*
D03*
X2475000D02*
D03*
Y362000D02*
D03*
X2440000Y312000D02*
D03*
Y362000D02*
D03*
X2405000Y312000D02*
D03*
Y362000D02*
D03*
X2370000Y312000D02*
D03*
Y362000D02*
D03*
X2335000D02*
D03*
Y312000D02*
D03*
X2510000Y362000D02*
D03*
Y312000D02*
D03*
X2712000Y355000D02*
D03*
X2677000Y305000D02*
D03*
X2642000Y355000D02*
D03*
X2607000Y305000D02*
D03*
X647000Y355000D02*
D03*
X612000Y305000D02*
D03*
X577000Y355000D02*
D03*
X542000Y305000D02*
D03*
X755000Y623000D02*
D03*
X635000D02*
D03*
Y745000D02*
D03*
X755000D02*
D03*
X695000Y603000D02*
D03*
X693000D02*
D03*
X697000D02*
D03*
X585000Y623000D02*
D03*
X465000D02*
D03*
Y745000D02*
D03*
X585000D02*
D03*
X525000Y603000D02*
D03*
X523000D02*
D03*
X527000D02*
D03*
X415000Y623000D02*
D03*
X295000D02*
D03*
Y745000D02*
D03*
X415000D02*
D03*
X355000Y603000D02*
D03*
X353000D02*
D03*
X357000D02*
D03*
X1448000Y356000D02*
D03*
X1413000Y306000D02*
D03*
X1313000Y356000D02*
D03*
X1278000Y306000D02*
D03*
X2499000Y831000D02*
D03*
X2534000Y881000D02*
D03*
X2632000Y831000D02*
D03*
X2667000Y881000D02*
D03*
X2765000Y831000D02*
D03*
X2800000Y881000D02*
D03*
X2898000Y831000D02*
D03*
X2933000Y881000D02*
D03*
X1967000Y831000D02*
D03*
X2002000Y881000D02*
D03*
X2100000Y831000D02*
D03*
X2135000Y881000D02*
D03*
X2233000Y831000D02*
D03*
X2268000Y881000D02*
D03*
X2366000Y831000D02*
D03*
X2401000Y881000D02*
D03*
X1435000Y831000D02*
D03*
X1470000Y881000D02*
D03*
X1568000Y831000D02*
D03*
X1603000Y881000D02*
D03*
X1701000Y831000D02*
D03*
X1736000Y881000D02*
D03*
X1834000Y831000D02*
D03*
X1869000Y881000D02*
D03*
X903000Y831000D02*
D03*
X938000Y881000D02*
D03*
X1036000Y831000D02*
D03*
X1071000Y881000D02*
D03*
X1169000Y831000D02*
D03*
X1204000Y881000D02*
D03*
X1302000Y831000D02*
D03*
X1337000Y881000D02*
D03*
D47*
X2842000Y626000D02*
D03*
D48*
X2867400D02*
D03*
X2842000Y600600D02*
D03*
X2867400D02*
D03*
X2842000Y575200D02*
D03*
X2867400D02*
D03*
X343100Y402300D02*
D03*
Y427700D02*
D03*
X266900Y402300D02*
D03*
X2961900Y427700D02*
D03*
Y402300D02*
D03*
X3038100Y427700D02*
D03*
D49*
X1005000Y620000D02*
D03*
X929000D02*
D03*
X1071000Y330000D02*
D03*
X1172000D02*
D03*
X735000Y862000D02*
D03*
X684200D02*
D03*
X583000D02*
D03*
X532200D02*
D03*
X431000D02*
D03*
X380200D02*
D03*
X2135000Y575000D02*
D03*
X2059000D02*
D03*
X1385000Y602000D02*
D03*
X1309000D02*
D03*
X1764000Y595000D02*
D03*
X1688000D02*
D03*
D50*
X2747000Y305000D02*
D03*
X682000D02*
D03*
X1483000Y306000D02*
D03*
X1348000D02*
D03*
X2464000Y881000D02*
D03*
X2597000Y881000D02*
D03*
X2730000Y881000D02*
D03*
X2863000Y881000D02*
D03*
X1932000Y881000D02*
D03*
X2065000D02*
D03*
X2198000D02*
D03*
X2331000D02*
D03*
X1400000D02*
D03*
X1533000D02*
D03*
X1666000D02*
D03*
X1799000D02*
D03*
X868000D02*
D03*
X1001000D02*
D03*
X1134000D02*
D03*
X1267000D02*
D03*
D51*
X2929436Y330000D02*
D03*
X494436D02*
D03*
X934812Y330000D02*
D03*
X839812D02*
D03*
D52*
X2889812Y330000D02*
D03*
X2850188D02*
D03*
X2810564D02*
D03*
X454812D02*
D03*
X415188D02*
D03*
X375564D02*
D03*
X895188Y330000D02*
D03*
X800188D02*
D03*
D53*
X1020200Y330000D02*
D03*
X1121200D02*
D03*
X785800Y862000D02*
D03*
X633800D02*
D03*
X481800D02*
D03*
D54*
X2987000Y318000D02*
D03*
X3023000D02*
D03*
Y282000D02*
D03*
X2987000D02*
D03*
X2979000Y300000D02*
D03*
X3031000D02*
D03*
X3005000Y274000D02*
D03*
Y326000D02*
D03*
X2987000Y903000D02*
D03*
X3023000D02*
D03*
Y867000D02*
D03*
X2987000D02*
D03*
X2979000Y885000D02*
D03*
X3031000D02*
D03*
X3005000Y859000D02*
D03*
Y911000D02*
D03*
X282000Y903000D02*
D03*
X318000D02*
D03*
Y867000D02*
D03*
X282000D02*
D03*
X274000Y885000D02*
D03*
X326000D02*
D03*
X300000Y859000D02*
D03*
Y911000D02*
D03*
X282000Y318000D02*
D03*
X318000D02*
D03*
Y282000D02*
D03*
X282000D02*
D03*
X274000Y300000D02*
D03*
X326000D02*
D03*
X300000Y274000D02*
D03*
Y326000D02*
D03*
D55*
X266900Y427700D02*
D03*
X3038100Y402300D02*
D03*
D56*
X2978000Y695500D02*
D03*
Y623500D02*
D03*
D57*
X3035000Y703900D02*
D03*
Y614100D02*
D03*
D58*
X2990500Y700800D02*
D03*
Y618200D02*
D03*
D59*
X2984500Y631500D02*
D03*
X2991500Y635500D02*
D03*
Y643500D02*
D03*
X2984500Y647500D02*
D03*
X2991500Y651500D02*
D03*
X2984500Y655500D02*
D03*
Y663500D02*
D03*
X2991500Y667500D02*
D03*
X2984500Y671500D02*
D03*
X2991500Y675500D02*
D03*
Y683500D02*
D03*
X2984500Y687500D02*
D03*
X2992986Y618208D02*
D03*
X2987779D02*
D03*
X2987804Y700808D02*
D03*
X2992986Y700808D02*
D03*
X3032305Y614118D02*
D03*
X3037486Y614108D02*
D03*
X3032305Y703907D02*
D03*
X3037486Y703908D02*
D03*
X2956195Y705000D02*
D03*
X2957195Y637900D02*
D03*
X2960195Y665900D02*
D03*
Y651900D02*
D03*
D60*
X2760000Y736000D02*
D03*
X3015000Y755000D02*
D03*
X2995000Y544000D02*
D03*
X2545000Y350000D02*
D03*
Y325000D02*
D03*
X2925000Y490000D02*
D03*
X2905000D02*
D03*
X2871500Y506100D02*
D03*
Y518800D02*
D03*
X3150500Y564850D02*
D03*
X2958500Y505800D02*
D03*
X2890000Y563000D02*
D03*
X2835000Y553500D02*
D03*
X2742000Y485000D02*
D03*
X2811000Y432500D02*
D03*
X2737000Y524000D02*
D03*
X2693000D02*
D03*
X2759000Y503500D02*
D03*
X2715000D02*
D03*
X2795000Y606000D02*
D03*
X2900000Y685000D02*
D03*
Y705000D02*
D03*
X2778000Y676000D02*
D03*
X2745000Y710000D02*
D03*
X2634000Y685000D02*
D03*
X2677000Y710000D02*
D03*
X2610000D02*
D03*
X2920000Y601000D02*
D03*
X2846000Y714050D02*
D03*
X2997195Y600900D02*
D03*
X2987195D02*
D03*
X2924695Y666000D02*
D03*
Y638000D02*
D03*
X2464000Y770000D02*
D03*
X899000Y875000D02*
D03*
X911000D02*
D03*
X2455000Y472000D02*
D03*
Y423000D02*
D03*
X2480000Y410000D02*
D03*
X2382000D02*
D03*
X2480000Y435000D02*
D03*
X2382000D02*
D03*
X2480000Y460000D02*
D03*
X2382000D02*
D03*
Y485000D02*
D03*
X2480000D02*
D03*
X2283000Y293000D02*
D03*
X2560000Y665000D02*
D03*
X2447000Y610000D02*
D03*
X2300000Y650000D02*
D03*
X2319000Y595000D02*
D03*
X2626000Y598150D02*
D03*
Y623550D02*
D03*
Y648950D02*
D03*
X2403000Y573000D02*
D03*
X2455000Y598700D02*
D03*
X2579850Y726150D02*
D03*
X2560850Y685150D02*
D03*
X2447000Y713000D02*
D03*
X2355000D02*
D03*
X2153000Y480000D02*
D03*
X1782000Y500000D02*
D03*
X2235000Y510000D02*
D03*
X1950000Y650000D02*
D03*
X1990000Y638000D02*
D03*
X1143000Y433000D02*
D03*
X1864000Y530000D02*
D03*
X1619000Y658000D02*
D03*
X1579000Y670000D02*
D03*
X1200000Y677000D02*
D03*
X820000Y695000D02*
D03*
X1451000Y542000D02*
D03*
X1370000Y487000D02*
D03*
Y432000D02*
D03*
X1071000Y560000D02*
D03*
X990000Y450000D02*
D03*
Y505000D02*
D03*
X2720000Y285000D02*
D03*
X2705000D02*
D03*
X2679500Y409000D02*
D03*
X2764500D02*
D03*
X699500D02*
D03*
X614500D02*
D03*
X2855000Y465000D02*
D03*
X450000Y391000D02*
D03*
X3020000Y485000D02*
D03*
X3000000Y445000D02*
D03*
X355000Y470000D02*
D03*
X2910050Y454050D02*
D03*
X2910000Y429000D02*
D03*
X395000Y454000D02*
D03*
X425000Y570000D02*
D03*
X595000D02*
D03*
X765000Y526000D02*
D03*
X502000Y516000D02*
D03*
X332000D02*
D03*
X618000D02*
D03*
X263000Y515000D02*
D03*
Y490000D02*
D03*
X502000Y498000D02*
D03*
X618000D02*
D03*
X716000D02*
D03*
X430000Y545000D02*
D03*
X455000D02*
D03*
Y484000D02*
D03*
X430000Y515000D02*
D03*
D61*
X2254000Y471000D02*
D03*
Y489000D02*
D03*
X2281000D02*
D03*
Y471000D02*
D03*
X1217000Y297000D02*
D03*
X1234000D02*
D03*
X1521000Y316000D02*
D03*
Y301000D02*
D03*
X2007000Y594000D02*
D03*
Y610000D02*
D03*
X1274000Y376000D02*
D03*
Y362000D02*
D03*
X1636000Y630000D02*
D03*
Y614000D02*
D03*
X1950000Y500000D02*
D03*
X1922000D02*
D03*
X2258000Y680000D02*
D03*
X2238000D02*
D03*
X2178000D02*
D03*
X2198000D02*
D03*
X2218000D02*
D03*
X2275000Y595000D02*
D03*
Y615000D02*
D03*
Y635000D02*
D03*
Y655000D02*
D03*
Y675000D02*
D03*
X2161000D02*
D03*
Y655000D02*
D03*
Y635000D02*
D03*
Y615000D02*
D03*
Y595000D02*
D03*
X1951000Y564000D02*
D03*
Y587000D02*
D03*
X1923000Y586000D02*
D03*
Y564000D02*
D03*
X1790000Y615000D02*
D03*
Y635000D02*
D03*
Y655000D02*
D03*
Y675000D02*
D03*
Y695000D02*
D03*
X1904000D02*
D03*
Y675000D02*
D03*
Y655000D02*
D03*
Y635000D02*
D03*
Y615000D02*
D03*
X1847000Y700000D02*
D03*
X1827000D02*
D03*
X1807000D02*
D03*
X1867000D02*
D03*
X1887000D02*
D03*
X1553000Y584000D02*
D03*
Y606000D02*
D03*
X1581000Y607000D02*
D03*
Y584000D02*
D03*
X1165000Y438000D02*
D03*
X1195000D02*
D03*
X1180000D02*
D03*
X1410000Y440000D02*
D03*
X1390000D02*
D03*
X1460000D02*
D03*
X1411000Y622000D02*
D03*
Y642000D02*
D03*
Y662000D02*
D03*
Y682000D02*
D03*
Y702000D02*
D03*
X1525000D02*
D03*
Y682000D02*
D03*
Y662000D02*
D03*
Y642000D02*
D03*
Y622000D02*
D03*
X1468000Y707000D02*
D03*
X1448000D02*
D03*
X1428000D02*
D03*
X1488000D02*
D03*
X1508000D02*
D03*
X1201000Y591000D02*
D03*
Y614000D02*
D03*
X1173000Y613000D02*
D03*
Y591000D02*
D03*
X909000Y635000D02*
D03*
Y618000D02*
D03*
X625000Y560000D02*
D03*
X455000D02*
D03*
X285000Y558000D02*
D03*
X1080000Y458000D02*
D03*
X1010000D02*
D03*
X1030000D02*
D03*
X1128000Y725000D02*
D03*
X1108000D02*
D03*
X1048000D02*
D03*
X1068000D02*
D03*
X1088000D02*
D03*
X1145000Y640000D02*
D03*
Y660000D02*
D03*
Y680000D02*
D03*
Y700000D02*
D03*
Y720000D02*
D03*
X1031000D02*
D03*
Y700000D02*
D03*
Y680000D02*
D03*
Y660000D02*
D03*
Y640000D02*
D03*
X793000Y609000D02*
D03*
Y631000D02*
D03*
X821000Y632000D02*
D03*
Y609000D02*
D03*
X2130000Y293000D02*
D03*
X1803000D02*
D03*
M02*
