%FSLAX44Y44*%
%MOMM*%
G71*
G01*
G75*
G04 Layer_Color=16711935*
%ADD10O,1.9000X0.6000*%
%ADD11R,1.1000X1.0000*%
%ADD12R,1.6200X1.3700*%
%ADD13R,1.0000X1.1000*%
%ADD14R,0.8000X0.9000*%
%ADD15R,0.7000X0.9000*%
%ADD16R,1.3700X1.6200*%
%ADD17R,3.0000X1.2000*%
%ADD18R,1.2000X3.0000*%
%ADD19R,5.0000X4.7500*%
%ADD20R,1.5000X1.7500*%
%ADD21R,5.5000X6.7000*%
%ADD22R,0.9500X2.2000*%
%ADD23R,4.7500X5.0000*%
%ADD24R,1.7500X1.5000*%
%ADD25R,1.1000X3.5000*%
%ADD26R,10.5000X8.6000*%
%ADD27R,0.6000X1.6000*%
%ADD28O,2.6000X0.7000*%
%ADD29R,3.6000X1.5000*%
%ADD30R,3.5000X1.5000*%
%ADD31R,0.9000X0.3000*%
%ADD32O,2.5000X0.7000*%
%ADD33R,1.2700X1.5240*%
%ADD34R,2.4000X2.0000*%
%ADD35R,2.4000X2.0000*%
%ADD36R,1.6000X0.6000*%
%ADD37C,0.3000*%
%ADD38C,0.5000*%
%ADD39C,0.4000*%
%ADD40C,0.2540*%
%ADD41C,0.7000*%
%ADD42C,2.0000*%
%ADD43C,1.9000*%
%ADD44C,1.0000*%
%ADD45C,7.0000*%
%ADD46C,2.2000*%
%ADD47R,1.5000X1.5000*%
%ADD48C,1.5000*%
%ADD49C,2.5000*%
%ADD50R,2.2000X2.2000*%
%ADD51R,3.0000X3.0000*%
%ADD52C,3.0000*%
%ADD53R,2.5000X2.5000*%
%ADD54C,1.5240*%
%ADD55R,1.5000X1.5000*%
%ADD56C,0.6500*%
%ADD57O,2.0000X1.0000*%
%ADD58O,1.6000X0.8000*%
%ADD59C,0.6000*%
%ADD60C,0.8000*%
%ADD61C,1.2000*%
%ADD62C,1.2500*%
%ADD63C,1.5000*%
%ADD64C,1.8000*%
%ADD65C,2.5000*%
%ADD66C,3.0000*%
%ADD67C,1.1000*%
%ADD68C,1.2000*%
%ADD69C,1.3000*%
%ADD70C,1.4000*%
%ADD71C,1.6000*%
%ADD72C,1.7000*%
%ADD73C,2.1000*%
%ADD74C,2.2000*%
%ADD75C,2.3000*%
%ADD76C,2.4000*%
%ADD77C,0.1500*%
%ADD78C,0.2500*%
%ADD79C,0.6000*%
%ADD80C,0.2000*%
%ADD81C,0.0508*%
%ADD82C,0.0254*%
%ADD83C,0.1270*%
%ADD84C,0.1524*%
%ADD85C,0.2032*%
%ADD86R,2.1000X0.5250*%
%ADD87R,0.5250X2.1000*%
%ADD88R,15.8969X2.5400*%
%ADD89R,8.0264X2.5400*%
%ADD90O,2.1032X0.8032*%
%ADD91R,1.3032X1.2032*%
%ADD92R,1.8232X1.5732*%
%ADD93R,1.2032X1.3032*%
%ADD94R,1.0032X1.1032*%
%ADD95R,0.9032X1.1032*%
%ADD96R,1.5732X1.8232*%
%ADD97R,3.2032X1.4032*%
%ADD98R,1.4032X3.2032*%
%ADD99R,5.2032X4.9532*%
%ADD100R,1.7032X1.9532*%
%ADD101R,5.7032X6.9032*%
%ADD102R,1.1532X2.4032*%
%ADD103R,4.9532X5.2032*%
%ADD104R,1.9532X1.7032*%
%ADD105R,1.3032X3.7032*%
%ADD106R,10.7032X8.8032*%
%ADD107R,0.8032X1.8032*%
%ADD108O,2.8032X0.9032*%
%ADD109R,3.8032X1.7032*%
%ADD110R,3.7032X1.7032*%
%ADD111R,1.1032X0.5032*%
%ADD112O,2.7032X0.9032*%
%ADD113R,1.4732X1.7272*%
%ADD114R,2.6032X2.2032*%
%ADD115R,2.6032X2.2032*%
%ADD116R,1.8032X0.8032*%
%ADD117C,7.2032*%
%ADD118C,2.4032*%
%ADD119R,1.7032X1.7032*%
%ADD120C,1.7032*%
%ADD121C,2.7032*%
%ADD122R,2.4032X2.4032*%
%ADD123R,3.2032X3.2032*%
%ADD124C,3.2032*%
%ADD125R,2.7032X2.7032*%
%ADD126C,1.7272*%
%ADD127R,1.7032X1.7032*%
%ADD128C,0.8532*%
%ADD129O,2.2032X1.2032*%
%ADD130O,1.8032X1.0032*%
%ADD131C,0.8032*%
%ADD132C,0.0000*%
D132*
X3038000Y701400D02*
G03*
X3040500Y703900I0J2500D01*
G01*
D02*
G03*
X3038000Y706400I-2500J0D01*
G01*
X3032000D02*
G03*
X3029500Y703900I0J-2500D01*
G01*
D02*
G03*
X3032000Y701400I2500J0D01*
G01*
X3038000Y611600D02*
G03*
X3040500Y614100I0J2500D01*
G01*
D02*
G03*
X3038000Y616600I-2500J0D01*
G01*
X3032000D02*
G03*
X3029500Y614100I0J-2500D01*
G01*
D02*
G03*
X3032000Y611600I2500J0D01*
G01*
X2993500Y698300D02*
G03*
X2996000Y700800I0J2500D01*
G01*
D02*
G03*
X2993500Y703300I-2500J0D01*
G01*
X2987500D02*
G03*
X2985000Y700800I0J-2500D01*
G01*
D02*
G03*
X2987500Y698300I2500J0D01*
G01*
X2993500Y615700D02*
G03*
X2996000Y618200I0J2500D01*
G01*
D02*
G03*
X2993500Y620700I-2500J0D01*
G01*
X2987500D02*
G03*
X2985000Y618200I0J-2500D01*
G01*
D02*
G03*
X2987500Y615700I2500J0D01*
G01*
X3035000Y701400D02*
X3038000D01*
X3035000Y706400D02*
X3038000D01*
X3032000D02*
X3035000D01*
X3032000Y701400D02*
X3035000D01*
Y611600D02*
X3038000D01*
X3035000Y616600D02*
X3038000D01*
X3032000D02*
X3035000D01*
X3032000Y611600D02*
X3035000D01*
X2990500Y698300D02*
X2993500D01*
X2990500Y703300D02*
X2993500D01*
X2987500D02*
X2990500D01*
X2987500Y698300D02*
X2990500D01*
Y615700D02*
X2993500D01*
X2990500Y620700D02*
X2993500D01*
X2987500D02*
X2990500D01*
X2987500Y615700D02*
X2990500D01*
M02*
