%FSLAX44Y44*%
%MOMM*%
G71*
G01*
G75*
G04 Layer_Color=16711935*
%ADD10O,1.9000X0.6000*%
%ADD11R,1.1000X1.0000*%
%ADD12R,1.6200X1.3700*%
%ADD13R,1.0000X1.1000*%
%ADD14R,0.8000X0.9000*%
%ADD15R,0.7000X0.9000*%
%ADD16R,1.3700X1.6200*%
%ADD17R,3.0000X1.2000*%
%ADD18R,1.2000X3.0000*%
%ADD19R,5.0000X4.7500*%
%ADD20R,1.5000X1.7500*%
%ADD21R,5.5000X6.7000*%
%ADD22R,0.9500X2.2000*%
%ADD23R,4.7500X5.0000*%
%ADD24R,1.7500X1.5000*%
%ADD25R,1.1000X3.5000*%
%ADD26R,10.5000X8.6000*%
%ADD27R,0.6000X1.6000*%
%ADD28O,2.6000X0.7000*%
%ADD29R,3.6000X1.5000*%
%ADD30R,3.5000X1.5000*%
%ADD31R,0.9000X0.3000*%
%ADD32O,2.5000X0.7000*%
%ADD33R,1.2700X1.5240*%
%ADD34R,2.4000X2.0000*%
%ADD35R,2.4000X2.0000*%
%ADD36R,1.6000X0.6000*%
%ADD37C,0.3000*%
%ADD38C,0.5000*%
%ADD39C,0.4000*%
%ADD40C,0.2540*%
%ADD41C,0.7000*%
%ADD42C,2.0000*%
%ADD43C,1.9000*%
%ADD44C,1.0000*%
%ADD45C,7.0000*%
%ADD46C,2.2000*%
%ADD47R,1.5000X1.5000*%
%ADD48C,1.5000*%
%ADD49C,2.5000*%
%ADD50R,2.2000X2.2000*%
%ADD51R,3.0000X3.0000*%
%ADD52C,3.0000*%
%ADD53R,2.5000X2.5000*%
%ADD54C,1.5240*%
%ADD55R,1.5000X1.5000*%
%ADD56C,0.6500*%
%ADD57O,2.0000X1.0000*%
%ADD58O,1.6000X0.8000*%
%ADD59C,0.6000*%
%ADD60C,0.8000*%
%ADD61C,1.2000*%
%ADD62C,1.2500*%
%ADD63C,1.5000*%
%ADD64C,1.8000*%
%ADD65C,2.5000*%
%ADD66C,3.0000*%
%ADD67C,1.1000*%
%ADD68C,1.2000*%
%ADD69C,1.3000*%
%ADD70C,1.4000*%
%ADD71C,1.6000*%
%ADD72C,1.7000*%
%ADD73C,2.1000*%
%ADD74C,2.2000*%
%ADD75C,2.3000*%
%ADD76C,2.4000*%
%ADD77C,0.1500*%
%ADD78C,0.2500*%
%ADD79C,0.6000*%
%ADD80C,0.2000*%
%ADD81C,0.0508*%
%ADD82C,0.0254*%
%ADD83C,0.1270*%
%ADD84C,0.1524*%
%ADD85C,0.2032*%
%ADD86R,2.1000X0.5250*%
%ADD87R,0.5250X2.1000*%
%ADD88R,15.8969X2.5400*%
%ADD89R,8.0264X2.5400*%
%ADD90O,2.1032X0.8032*%
%ADD91R,1.3032X1.2032*%
%ADD92R,1.8232X1.5732*%
%ADD93R,1.2032X1.3032*%
%ADD94R,1.0032X1.1032*%
%ADD95R,0.9032X1.1032*%
%ADD96R,1.5732X1.8232*%
%ADD97R,3.2032X1.4032*%
%ADD98R,1.4032X3.2032*%
%ADD99R,5.2032X4.9532*%
%ADD100R,1.7032X1.9532*%
%ADD101R,5.7032X6.9032*%
%ADD102R,1.1532X2.4032*%
%ADD103R,4.9532X5.2032*%
%ADD104R,1.9532X1.7032*%
%ADD105R,1.3032X3.7032*%
%ADD106R,10.7032X8.8032*%
%ADD107R,0.8032X1.8032*%
%ADD108O,2.8032X0.9032*%
%ADD109R,3.8032X1.7032*%
%ADD110R,3.7032X1.7032*%
%ADD111R,1.1032X0.5032*%
%ADD112O,2.7032X0.9032*%
%ADD113R,1.4732X1.7272*%
%ADD114R,2.6032X2.2032*%
%ADD115R,2.6032X2.2032*%
%ADD116R,1.8032X0.8032*%
%ADD117C,7.2032*%
%ADD118C,2.4032*%
%ADD119R,1.7032X1.7032*%
%ADD120C,1.7032*%
%ADD121C,2.7032*%
%ADD122R,2.4032X2.4032*%
%ADD123R,3.2032X3.2032*%
%ADD124C,3.2032*%
%ADD125R,2.7032X2.7032*%
%ADD126C,1.7272*%
%ADD127R,1.7032X1.7032*%
%ADD128C,0.8532*%
%ADD129O,2.2032X1.2032*%
%ADD130O,1.8032X1.0032*%
%ADD131C,0.8032*%
D117*
X300000Y300000D02*
D03*
Y885000D02*
D03*
X3005000Y300000D02*
D03*
Y885000D02*
D03*
D118*
X1960000Y312000D02*
D03*
Y362000D02*
D03*
X1995000D02*
D03*
Y312000D02*
D03*
X2030000Y362000D02*
D03*
Y312000D02*
D03*
X2065000Y362000D02*
D03*
Y312000D02*
D03*
X2100000Y362000D02*
D03*
Y312000D02*
D03*
X1785000D02*
D03*
Y362000D02*
D03*
X1820000D02*
D03*
Y312000D02*
D03*
X1855000Y362000D02*
D03*
Y312000D02*
D03*
X1890000Y362000D02*
D03*
Y312000D02*
D03*
X1925000Y362000D02*
D03*
Y312000D02*
D03*
X1750000D02*
D03*
Y362000D02*
D03*
X1715000Y312000D02*
D03*
Y362000D02*
D03*
X1680000Y312000D02*
D03*
Y362000D02*
D03*
X1645000Y312000D02*
D03*
Y362000D02*
D03*
X1610000D02*
D03*
Y312000D02*
D03*
X2160000D02*
D03*
Y362000D02*
D03*
X2195000D02*
D03*
Y312000D02*
D03*
X2230000Y362000D02*
D03*
Y312000D02*
D03*
X2265000Y362000D02*
D03*
Y312000D02*
D03*
X2300000Y362000D02*
D03*
Y312000D02*
D03*
X2475000D02*
D03*
Y362000D02*
D03*
X2440000Y312000D02*
D03*
Y362000D02*
D03*
X2405000Y312000D02*
D03*
Y362000D02*
D03*
X2370000Y312000D02*
D03*
Y362000D02*
D03*
X2335000D02*
D03*
Y312000D02*
D03*
X2510000Y362000D02*
D03*
Y312000D02*
D03*
X2712000Y355000D02*
D03*
X2677000Y305000D02*
D03*
X2642000Y355000D02*
D03*
X2607000Y305000D02*
D03*
X647000Y355000D02*
D03*
X612000Y305000D02*
D03*
X577000Y355000D02*
D03*
X542000Y305000D02*
D03*
X755000Y623000D02*
D03*
X635000D02*
D03*
Y745000D02*
D03*
X755000D02*
D03*
X695000Y603000D02*
D03*
X693000D02*
D03*
X697000D02*
D03*
X585000Y623000D02*
D03*
X465000D02*
D03*
Y745000D02*
D03*
X585000D02*
D03*
X525000Y603000D02*
D03*
X523000D02*
D03*
X527000D02*
D03*
X415000Y623000D02*
D03*
X295000D02*
D03*
Y745000D02*
D03*
X415000D02*
D03*
X355000Y603000D02*
D03*
X353000D02*
D03*
X357000D02*
D03*
X1448000Y356000D02*
D03*
X1413000Y306000D02*
D03*
X1313000Y356000D02*
D03*
X1278000Y306000D02*
D03*
X2499000Y831000D02*
D03*
X2534000Y881000D02*
D03*
X2632000Y831000D02*
D03*
X2667000Y881000D02*
D03*
X2765000Y831000D02*
D03*
X2800000Y881000D02*
D03*
X2898000Y831000D02*
D03*
X2933000Y881000D02*
D03*
X1967000Y831000D02*
D03*
X2002000Y881000D02*
D03*
X2100000Y831000D02*
D03*
X2135000Y881000D02*
D03*
X2233000Y831000D02*
D03*
X2268000Y881000D02*
D03*
X2366000Y831000D02*
D03*
X2401000Y881000D02*
D03*
X1435000Y831000D02*
D03*
X1470000Y881000D02*
D03*
X1568000Y831000D02*
D03*
X1603000Y881000D02*
D03*
X1701000Y831000D02*
D03*
X1736000Y881000D02*
D03*
X1834000Y831000D02*
D03*
X1869000Y881000D02*
D03*
X903000Y831000D02*
D03*
X938000Y881000D02*
D03*
X1036000Y831000D02*
D03*
X1071000Y881000D02*
D03*
X1169000Y831000D02*
D03*
X1204000Y881000D02*
D03*
X1302000Y831000D02*
D03*
X1337000Y881000D02*
D03*
D119*
X2842000Y626000D02*
D03*
D120*
X2867400D02*
D03*
X2842000Y600600D02*
D03*
X2867400D02*
D03*
X2842000Y575200D02*
D03*
X2867400D02*
D03*
X343100Y402300D02*
D03*
Y427700D02*
D03*
X266900Y402300D02*
D03*
X2961900Y427700D02*
D03*
Y402300D02*
D03*
X3038100Y427700D02*
D03*
D121*
X1005000Y620000D02*
D03*
X929000D02*
D03*
X1071000Y330000D02*
D03*
X1172000D02*
D03*
X735000Y862000D02*
D03*
X684200D02*
D03*
X583000D02*
D03*
X532200D02*
D03*
X431000D02*
D03*
X380200D02*
D03*
X2135000Y575000D02*
D03*
X2059000D02*
D03*
X1385000Y602000D02*
D03*
X1309000D02*
D03*
X1764000Y595000D02*
D03*
X1688000D02*
D03*
D122*
X2747000Y305000D02*
D03*
X682000D02*
D03*
X1483000Y306000D02*
D03*
X1348000D02*
D03*
X2464000Y881000D02*
D03*
X2597000Y881000D02*
D03*
X2730000Y881000D02*
D03*
X2863000Y881000D02*
D03*
X1932000Y881000D02*
D03*
X2065000D02*
D03*
X2198000D02*
D03*
X2331000D02*
D03*
X1400000D02*
D03*
X1533000D02*
D03*
X1666000D02*
D03*
X1799000D02*
D03*
X868000D02*
D03*
X1001000D02*
D03*
X1134000D02*
D03*
X1267000D02*
D03*
D123*
X2929436Y330000D02*
D03*
X494436D02*
D03*
X934812Y330000D02*
D03*
X839812D02*
D03*
D124*
X2889812Y330000D02*
D03*
X2850188D02*
D03*
X2810564D02*
D03*
X454812D02*
D03*
X415188D02*
D03*
X375564D02*
D03*
X895188Y330000D02*
D03*
X800188D02*
D03*
D125*
X1020200Y330000D02*
D03*
X1121200D02*
D03*
X785800Y862000D02*
D03*
X633800D02*
D03*
X481800D02*
D03*
D126*
X2987000Y318000D02*
D03*
X3023000D02*
D03*
Y282000D02*
D03*
X2987000D02*
D03*
X2979000Y300000D02*
D03*
X3031000D02*
D03*
X3005000Y274000D02*
D03*
Y326000D02*
D03*
X2987000Y903000D02*
D03*
X3023000D02*
D03*
Y867000D02*
D03*
X2987000D02*
D03*
X2979000Y885000D02*
D03*
X3031000D02*
D03*
X3005000Y859000D02*
D03*
Y911000D02*
D03*
X282000Y903000D02*
D03*
X318000D02*
D03*
Y867000D02*
D03*
X282000D02*
D03*
X274000Y885000D02*
D03*
X326000D02*
D03*
X300000Y859000D02*
D03*
Y911000D02*
D03*
X282000Y318000D02*
D03*
X318000D02*
D03*
Y282000D02*
D03*
X282000D02*
D03*
X274000Y300000D02*
D03*
X326000D02*
D03*
X300000Y274000D02*
D03*
Y326000D02*
D03*
D127*
X266900Y427700D02*
D03*
X3038100Y402300D02*
D03*
D128*
X2978000Y695500D02*
D03*
Y623500D02*
D03*
D129*
X3035000Y703900D02*
D03*
Y614100D02*
D03*
D130*
X2990500Y700800D02*
D03*
Y618200D02*
D03*
D131*
X2984500Y631500D02*
D03*
X2991500Y635500D02*
D03*
Y643500D02*
D03*
X2984500Y647500D02*
D03*
X2991500Y651500D02*
D03*
X2984500Y655500D02*
D03*
Y663500D02*
D03*
X2991500Y667500D02*
D03*
X2984500Y671500D02*
D03*
X2991500Y675500D02*
D03*
Y683500D02*
D03*
X2984500Y687500D02*
D03*
X2992986Y618208D02*
D03*
X2987779D02*
D03*
X2987804Y700808D02*
D03*
X2992986Y700808D02*
D03*
X3032305Y614118D02*
D03*
X3037486Y614108D02*
D03*
X3032305Y703907D02*
D03*
X3037486Y703908D02*
D03*
M02*
