%FSLAX44Y44*%
%MOMM*%
G71*
G01*
G75*
%ADD10O,1.9000X0.6000*%
%ADD11R,1.1000X1.0000*%
%ADD12R,1.6200X1.3700*%
%ADD13R,1.0000X1.1000*%
%ADD14R,0.8000X0.9000*%
%ADD15R,0.7000X0.9000*%
%ADD16R,1.3700X1.6200*%
%ADD17R,3.0000X1.2000*%
%ADD18R,1.2000X3.0000*%
%ADD19R,5.0000X4.7500*%
%ADD20R,1.5000X1.7500*%
%ADD21R,5.5000X6.7000*%
%ADD22R,0.9500X2.2000*%
%ADD23R,4.7500X5.0000*%
%ADD24R,1.7500X1.5000*%
%ADD25R,1.1000X3.5000*%
%ADD26R,10.5000X8.6000*%
%ADD27R,0.6000X1.6000*%
%ADD28O,2.6000X0.7000*%
%ADD29R,3.6000X1.5000*%
%ADD30R,3.5000X1.5000*%
%ADD31R,0.9000X0.3000*%
%ADD32O,2.5000X0.7000*%
%ADD33R,1.2700X1.5240*%
%ADD34R,2.4000X2.0000*%
%ADD35R,2.4000X2.0000*%
%ADD36R,1.6000X0.6000*%
%ADD37C,0.3000*%
%ADD38C,0.5000*%
%ADD39C,0.4000*%
%ADD40C,0.2540*%
%ADD41C,0.7000*%
%ADD42C,2.0000*%
%ADD43C,1.9000*%
%ADD44C,1.0000*%
%ADD45C,7.0000*%
%ADD46C,2.2000*%
%ADD47R,1.5000X1.5000*%
%ADD48C,1.5000*%
%ADD49C,2.5000*%
%ADD50R,2.2000X2.2000*%
%ADD51R,3.0000X3.0000*%
%ADD52C,3.0000*%
%ADD53R,2.5000X2.5000*%
%ADD54C,1.5240*%
%ADD55R,1.5000X1.5000*%
%ADD56C,0.6500*%
%ADD57O,2.0000X1.0000*%
%ADD58O,1.6000X0.8000*%
%ADD59C,0.6000*%
%ADD60C,0.8000*%
%ADD61C,1.2000*%
%ADD62C,1.2500*%
%ADD63C,1.5000*%
%ADD64C,1.8000*%
%ADD65C,2.5000*%
%ADD66C,3.0000*%
%ADD67C,1.1000*%
%ADD68C,1.2000*%
%ADD69C,1.3000*%
%ADD70C,1.4000*%
%ADD71C,1.6000*%
%ADD72C,1.7000*%
%ADD73C,2.1000*%
%ADD74C,2.2000*%
%ADD75C,2.3000*%
%ADD76C,2.4000*%
D10*
X2891500Y544050D02*
D03*
Y531350D02*
D03*
Y518650D02*
D03*
Y505950D02*
D03*
X2938500Y544050D02*
D03*
Y531350D02*
D03*
Y518650D02*
D03*
Y505950D02*
D03*
X2933500Y415950D02*
D03*
Y428650D02*
D03*
Y441350D02*
D03*
Y454050D02*
D03*
X2886500Y415950D02*
D03*
Y428650D02*
D03*
Y441350D02*
D03*
Y454050D02*
D03*
X418500Y415950D02*
D03*
Y428650D02*
D03*
Y441350D02*
D03*
Y454050D02*
D03*
X371500Y415950D02*
D03*
Y428650D02*
D03*
Y441350D02*
D03*
Y454050D02*
D03*
D11*
X2965500Y563000D02*
D03*
X2982500D02*
D03*
X2965500Y544000D02*
D03*
X2982500D02*
D03*
X2754500Y485000D02*
D03*
X2771500D02*
D03*
X2663500Y685000D02*
D03*
X2646500D02*
D03*
X2926500D02*
D03*
X2943500D02*
D03*
X2926500Y705000D02*
D03*
X2943500D02*
D03*
X2958500Y601000D02*
D03*
X2975500D02*
D03*
X2351500Y485000D02*
D03*
X2368500D02*
D03*
X2351500Y460000D02*
D03*
X2368500D02*
D03*
X2351500Y435000D02*
D03*
X2368500D02*
D03*
X2351500Y410000D02*
D03*
X2368500D02*
D03*
X2581500Y670000D02*
D03*
X2598500D02*
D03*
X2348500Y515000D02*
D03*
X2331500D02*
D03*
X2348500Y555000D02*
D03*
X2331500D02*
D03*
X2348500Y595000D02*
D03*
X2331500D02*
D03*
X2348500Y575000D02*
D03*
X2331500D02*
D03*
X2348500Y535000D02*
D03*
X2331500D02*
D03*
X1647500Y690000D02*
D03*
X1630500D02*
D03*
X1647500Y670000D02*
D03*
X1630500D02*
D03*
X1978500Y650000D02*
D03*
X1961500D02*
D03*
X2018500Y670000D02*
D03*
X2001500D02*
D03*
X2018500Y650000D02*
D03*
X2001500D02*
D03*
X1228500Y677000D02*
D03*
X1211500D02*
D03*
X1268500Y697000D02*
D03*
X1251500D02*
D03*
X1268500Y677000D02*
D03*
X1251500D02*
D03*
X1320500Y770000D02*
D03*
X1337500D02*
D03*
X1280500D02*
D03*
X1297500D02*
D03*
X1187500D02*
D03*
X1204500D02*
D03*
X1147500D02*
D03*
X1164500D02*
D03*
X1054500D02*
D03*
X1071500D02*
D03*
X1014500D02*
D03*
X1031500D02*
D03*
X921500D02*
D03*
X938500D02*
D03*
X881500D02*
D03*
X898500D02*
D03*
X1852500D02*
D03*
X1869500D02*
D03*
X1812500D02*
D03*
X1829500D02*
D03*
X1719500D02*
D03*
X1736500D02*
D03*
X1679500D02*
D03*
X1696500D02*
D03*
X1586500D02*
D03*
X1603500D02*
D03*
X1546500D02*
D03*
X1563500D02*
D03*
X1453500D02*
D03*
X1470500D02*
D03*
X1413500D02*
D03*
X1430500D02*
D03*
X2384500D02*
D03*
X2401500D02*
D03*
X2344500D02*
D03*
X2361500D02*
D03*
X2251500D02*
D03*
X2268500D02*
D03*
X2211500D02*
D03*
X2228500D02*
D03*
X2118500D02*
D03*
X2135500D02*
D03*
X2078500D02*
D03*
X2095500D02*
D03*
X1985500D02*
D03*
X2002500D02*
D03*
X1945500D02*
D03*
X1962500D02*
D03*
X2916500Y770000D02*
D03*
X2933500D02*
D03*
X2876500D02*
D03*
X2893500D02*
D03*
X2783500Y770000D02*
D03*
X2800500D02*
D03*
X2743500D02*
D03*
X2760500D02*
D03*
X2650500Y770000D02*
D03*
X2667500D02*
D03*
X2610500D02*
D03*
X2627500D02*
D03*
X888500Y715000D02*
D03*
X871500D02*
D03*
X848500Y695000D02*
D03*
X831500D02*
D03*
X888500D02*
D03*
X871500D02*
D03*
X2517500Y770000D02*
D03*
X2534500D02*
D03*
X2477500D02*
D03*
X2494500D02*
D03*
X3018500Y377000D02*
D03*
X3001500D02*
D03*
X306500D02*
D03*
X323500D02*
D03*
X2826500Y395000D02*
D03*
X2843500D02*
D03*
X326500Y470000D02*
D03*
X343500D02*
D03*
X326500Y452000D02*
D03*
X343500D02*
D03*
X2181500Y480000D02*
D03*
X2164500D02*
D03*
X1810500Y500000D02*
D03*
X1793500D02*
D03*
X1607500Y670000D02*
D03*
X1590500D02*
D03*
X685500Y498000D02*
D03*
X702500D02*
D03*
X685500Y516000D02*
D03*
X702500D02*
D03*
X532500Y498000D02*
D03*
X515500D02*
D03*
X362500D02*
D03*
X345500D02*
D03*
X362500Y516000D02*
D03*
X345500D02*
D03*
X532500D02*
D03*
X515500D02*
D03*
X648500D02*
D03*
X631500D02*
D03*
X648500Y498000D02*
D03*
X631500D02*
D03*
X585500Y510000D02*
D03*
X568500D02*
D03*
X585500Y490000D02*
D03*
X568500D02*
D03*
D12*
X2835000Y503900D02*
D03*
Y541000D02*
D03*
X2811000Y482100D02*
D03*
Y445000D02*
D03*
X2809000Y553100D02*
D03*
Y516000D02*
D03*
X2784000Y553100D02*
D03*
Y516000D02*
D03*
X2759000Y553100D02*
D03*
Y516000D02*
D03*
X2715000Y553100D02*
D03*
Y516000D02*
D03*
X1325000Y444900D02*
D03*
Y482000D02*
D03*
X945000Y462900D02*
D03*
Y500000D02*
D03*
X2855000Y412900D02*
D03*
Y450000D02*
D03*
X450000Y443100D02*
D03*
Y406000D02*
D03*
X430000Y495900D02*
D03*
Y533000D02*
D03*
X455000Y495900D02*
D03*
Y533000D02*
D03*
D13*
X2835000Y461500D02*
D03*
Y478500D02*
D03*
X2795000Y576500D02*
D03*
Y593500D02*
D03*
X2737000Y536500D02*
D03*
Y553500D02*
D03*
X2693000Y536500D02*
D03*
Y553500D02*
D03*
X2745000Y738500D02*
D03*
Y721500D02*
D03*
X2725000Y721500D02*
D03*
Y738500D02*
D03*
X2300000Y621500D02*
D03*
Y638500D02*
D03*
X2320000Y621500D02*
D03*
Y638500D02*
D03*
X2580000Y713500D02*
D03*
Y696500D02*
D03*
X2561000Y713500D02*
D03*
Y696500D02*
D03*
X1580000Y461500D02*
D03*
Y478500D02*
D03*
X1143000Y461500D02*
D03*
Y444500D02*
D03*
X1370000Y445500D02*
D03*
Y462500D02*
D03*
X1350000Y461500D02*
D03*
Y444500D02*
D03*
X990000Y463500D02*
D03*
Y480500D02*
D03*
X970000Y479500D02*
D03*
Y462500D02*
D03*
X2640000Y443500D02*
D03*
Y426500D02*
D03*
X2725000Y443500D02*
D03*
Y426500D02*
D03*
X2700000Y443500D02*
D03*
Y426500D02*
D03*
X2785000Y443500D02*
D03*
Y426500D02*
D03*
X720000Y443500D02*
D03*
Y426500D02*
D03*
X635000Y443500D02*
D03*
Y426500D02*
D03*
X575000Y443500D02*
D03*
Y426500D02*
D03*
X660000Y443500D02*
D03*
Y426500D02*
D03*
X473000Y424500D02*
D03*
Y441500D02*
D03*
X3000000Y473500D02*
D03*
Y456500D02*
D03*
X3020000Y473500D02*
D03*
Y456500D02*
D03*
D14*
X2688000Y710000D02*
D03*
X2702000D02*
D03*
D15*
X3006500Y601000D02*
D03*
X3021500D02*
D03*
X2949500Y620000D02*
D03*
X2934500D02*
D03*
X2949500Y666000D02*
D03*
X2934500D02*
D03*
X2949500Y652000D02*
D03*
X2934500D02*
D03*
X2949500Y638000D02*
D03*
X2934500D02*
D03*
D16*
X2533100Y410000D02*
D03*
X2496000D02*
D03*
X2533100Y435000D02*
D03*
X2496000D02*
D03*
X2533100Y460000D02*
D03*
X2496000D02*
D03*
X2533100Y485000D02*
D03*
X2496000D02*
D03*
X2396900D02*
D03*
X2434000D02*
D03*
X2396900Y460000D02*
D03*
X2434000D02*
D03*
X2396900Y435000D02*
D03*
X2434000D02*
D03*
X2396900Y410000D02*
D03*
X2434000D02*
D03*
X2664100Y710000D02*
D03*
X2627000D02*
D03*
X314100Y515000D02*
D03*
X277000D02*
D03*
X314100Y490000D02*
D03*
X277000D02*
D03*
D17*
X2222140Y480000D02*
D03*
X2267860D02*
D03*
X1852140Y500000D02*
D03*
X1897860D02*
D03*
D18*
X1535000Y469140D02*
D03*
Y514860D02*
D03*
X1143000Y487140D02*
D03*
Y532860D02*
D03*
D19*
X1635000Y514000D02*
D03*
X2006000Y494000D02*
D03*
D20*
X1598000Y503000D02*
D03*
Y525000D02*
D03*
X1969000Y483000D02*
D03*
Y505000D02*
D03*
D21*
X1245000Y465500D02*
D03*
X865000Y483500D02*
D03*
D22*
X1222200Y531000D02*
D03*
X1267800D02*
D03*
X842200Y549000D02*
D03*
X887800D02*
D03*
D23*
X1055000Y495000D02*
D03*
X1435000Y477000D02*
D03*
D24*
X1066000Y458000D02*
D03*
X1044000D02*
D03*
X1446000Y440000D02*
D03*
X1424000D02*
D03*
D25*
X1054000Y582500D02*
D03*
X1071000D02*
D03*
X1088000D02*
D03*
X1105000D02*
D03*
X1122000D02*
D03*
X1434000Y564500D02*
D03*
X1451000D02*
D03*
X1468000D02*
D03*
X1485000D02*
D03*
X1502000D02*
D03*
X2184000Y537500D02*
D03*
X2201000D02*
D03*
X2218000D02*
D03*
X2235000D02*
D03*
X2252000D02*
D03*
X1813000Y557500D02*
D03*
X1830000D02*
D03*
X1847000D02*
D03*
X1864000D02*
D03*
X1881000D02*
D03*
D26*
X1088000Y678000D02*
D03*
X1468000Y660000D02*
D03*
X2218000Y633000D02*
D03*
X1847000Y653000D02*
D03*
D27*
X2660500Y424000D02*
D03*
X2679500D02*
D03*
X2670000Y446000D02*
D03*
X2745500Y424000D02*
D03*
X2764500D02*
D03*
X2755000Y446000D02*
D03*
X595500Y424000D02*
D03*
X614500D02*
D03*
X605000Y446000D02*
D03*
X680500Y424000D02*
D03*
X699500D02*
D03*
X690000Y446000D02*
D03*
D28*
X2475000Y573150D02*
D03*
Y585850D02*
D03*
Y598550D02*
D03*
Y611250D02*
D03*
Y623950D02*
D03*
Y636650D02*
D03*
Y649350D02*
D03*
Y662050D02*
D03*
Y674750D02*
D03*
Y687450D02*
D03*
Y700150D02*
D03*
Y712850D02*
D03*
X2383000Y573150D02*
D03*
Y585850D02*
D03*
Y598550D02*
D03*
Y611250D02*
D03*
Y623950D02*
D03*
Y636650D02*
D03*
Y649350D02*
D03*
Y662050D02*
D03*
Y674750D02*
D03*
Y687450D02*
D03*
Y700150D02*
D03*
Y712850D02*
D03*
X2554000Y648800D02*
D03*
Y636100D02*
D03*
Y623400D02*
D03*
Y610700D02*
D03*
Y598000D02*
D03*
Y585300D02*
D03*
Y572600D02*
D03*
Y559900D02*
D03*
Y547200D02*
D03*
X2646000Y648800D02*
D03*
Y636100D02*
D03*
Y623400D02*
D03*
Y610700D02*
D03*
Y598000D02*
D03*
Y585300D02*
D03*
Y572600D02*
D03*
Y559900D02*
D03*
Y547200D02*
D03*
D29*
X1936900Y575000D02*
D03*
X1186900Y602000D02*
D03*
X1566900Y595000D02*
D03*
X806900Y620000D02*
D03*
D30*
X2014370Y575000D02*
D03*
X1264370Y602000D02*
D03*
X1644370Y595000D02*
D03*
X884370Y620000D02*
D03*
D31*
X2972400Y686500D02*
D03*
Y681500D02*
D03*
Y676500D02*
D03*
Y671500D02*
D03*
Y666500D02*
D03*
Y661500D02*
D03*
Y656500D02*
D03*
Y651500D02*
D03*
Y646500D02*
D03*
Y641500D02*
D03*
Y636500D02*
D03*
Y631500D02*
D03*
D32*
X2795500Y714050D02*
D03*
Y701350D02*
D03*
Y688650D02*
D03*
Y675950D02*
D03*
X2864500Y714050D02*
D03*
Y701350D02*
D03*
Y688650D02*
D03*
Y675950D02*
D03*
D33*
X2744160Y660000D02*
D03*
X2723840D02*
D03*
X2744160Y630000D02*
D03*
X2723840D02*
D03*
X2744160Y600000D02*
D03*
X2723840D02*
D03*
D34*
X352860Y560000D02*
D03*
X522860D02*
D03*
X692860D02*
D03*
D35*
X307140D02*
D03*
X477140D02*
D03*
X647140D02*
D03*
D36*
X411000Y550500D02*
D03*
Y569500D02*
D03*
X389000Y560000D02*
D03*
X581000Y550500D02*
D03*
Y569500D02*
D03*
X559000Y560000D02*
D03*
X751000Y550500D02*
D03*
Y569500D02*
D03*
X729000Y560000D02*
D03*
X751000Y506500D02*
D03*
Y525500D02*
D03*
X729000Y516000D02*
D03*
D45*
X300000Y300000D02*
D03*
Y885000D02*
D03*
X3005000Y300000D02*
D03*
Y885000D02*
D03*
D46*
X1960000Y312000D02*
D03*
Y362000D02*
D03*
X1995000D02*
D03*
Y312000D02*
D03*
X2030000Y362000D02*
D03*
Y312000D02*
D03*
X2065000Y362000D02*
D03*
Y312000D02*
D03*
X2100000Y362000D02*
D03*
Y312000D02*
D03*
X1785000D02*
D03*
Y362000D02*
D03*
X1820000D02*
D03*
Y312000D02*
D03*
X1855000Y362000D02*
D03*
Y312000D02*
D03*
X1890000Y362000D02*
D03*
Y312000D02*
D03*
X1925000Y362000D02*
D03*
Y312000D02*
D03*
X1750000D02*
D03*
Y362000D02*
D03*
X1715000Y312000D02*
D03*
Y362000D02*
D03*
X1680000Y312000D02*
D03*
Y362000D02*
D03*
X1645000Y312000D02*
D03*
Y362000D02*
D03*
X1610000D02*
D03*
Y312000D02*
D03*
X2160000D02*
D03*
Y362000D02*
D03*
X2195000D02*
D03*
Y312000D02*
D03*
X2230000Y362000D02*
D03*
Y312000D02*
D03*
X2265000Y362000D02*
D03*
Y312000D02*
D03*
X2300000Y362000D02*
D03*
Y312000D02*
D03*
X2475000D02*
D03*
Y362000D02*
D03*
X2440000Y312000D02*
D03*
Y362000D02*
D03*
X2405000Y312000D02*
D03*
Y362000D02*
D03*
X2370000Y312000D02*
D03*
Y362000D02*
D03*
X2335000D02*
D03*
Y312000D02*
D03*
X2510000Y362000D02*
D03*
Y312000D02*
D03*
X2712000Y355000D02*
D03*
X2677000Y305000D02*
D03*
X2642000Y355000D02*
D03*
X2607000Y305000D02*
D03*
X647000Y355000D02*
D03*
X612000Y305000D02*
D03*
X577000Y355000D02*
D03*
X542000Y305000D02*
D03*
X755000Y623000D02*
D03*
X635000D02*
D03*
Y745000D02*
D03*
X755000D02*
D03*
X695000Y603000D02*
D03*
X693000D02*
D03*
X697000D02*
D03*
X585000Y623000D02*
D03*
X465000D02*
D03*
Y745000D02*
D03*
X585000D02*
D03*
X525000Y603000D02*
D03*
X523000D02*
D03*
X527000D02*
D03*
X415000Y623000D02*
D03*
X295000D02*
D03*
Y745000D02*
D03*
X415000D02*
D03*
X355000Y603000D02*
D03*
X353000D02*
D03*
X357000D02*
D03*
X1448000Y356000D02*
D03*
X1413000Y306000D02*
D03*
X1313000Y356000D02*
D03*
X1278000Y306000D02*
D03*
X2499000Y831000D02*
D03*
X2534000Y881000D02*
D03*
X2632000Y831000D02*
D03*
X2667000Y881000D02*
D03*
X2765000Y831000D02*
D03*
X2800000Y881000D02*
D03*
X2898000Y831000D02*
D03*
X2933000Y881000D02*
D03*
X1967000Y831000D02*
D03*
X2002000Y881000D02*
D03*
X2100000Y831000D02*
D03*
X2135000Y881000D02*
D03*
X2233000Y831000D02*
D03*
X2268000Y881000D02*
D03*
X2366000Y831000D02*
D03*
X2401000Y881000D02*
D03*
X1435000Y831000D02*
D03*
X1470000Y881000D02*
D03*
X1568000Y831000D02*
D03*
X1603000Y881000D02*
D03*
X1701000Y831000D02*
D03*
X1736000Y881000D02*
D03*
X1834000Y831000D02*
D03*
X1869000Y881000D02*
D03*
X903000Y831000D02*
D03*
X938000Y881000D02*
D03*
X1036000Y831000D02*
D03*
X1071000Y881000D02*
D03*
X1169000Y831000D02*
D03*
X1204000Y881000D02*
D03*
X1302000Y831000D02*
D03*
X1337000Y881000D02*
D03*
D47*
X2842000Y626000D02*
D03*
D48*
X2867400D02*
D03*
X2842000Y600600D02*
D03*
X2867400D02*
D03*
X2842000Y575200D02*
D03*
X2867400D02*
D03*
X343100Y402300D02*
D03*
Y427700D02*
D03*
X266900Y402300D02*
D03*
X2961900Y427700D02*
D03*
Y402300D02*
D03*
X3038100Y427700D02*
D03*
D49*
X1005000Y620000D02*
D03*
X929000D02*
D03*
X1071000Y330000D02*
D03*
X1172000D02*
D03*
X735000Y862000D02*
D03*
X684200D02*
D03*
X583000D02*
D03*
X532200D02*
D03*
X431000D02*
D03*
X380200D02*
D03*
X2135000Y575000D02*
D03*
X2059000D02*
D03*
X1385000Y602000D02*
D03*
X1309000D02*
D03*
X1764000Y595000D02*
D03*
X1688000D02*
D03*
D50*
X2747000Y305000D02*
D03*
X682000D02*
D03*
X1483000Y306000D02*
D03*
X1348000D02*
D03*
X2464000Y881000D02*
D03*
X2597000Y881000D02*
D03*
X2730000Y881000D02*
D03*
X2863000Y881000D02*
D03*
X1932000Y881000D02*
D03*
X2065000D02*
D03*
X2198000D02*
D03*
X2331000D02*
D03*
X1400000D02*
D03*
X1533000D02*
D03*
X1666000D02*
D03*
X1799000D02*
D03*
X868000D02*
D03*
X1001000D02*
D03*
X1134000D02*
D03*
X1267000D02*
D03*
D51*
X2929436Y330000D02*
D03*
X494436D02*
D03*
X934812Y330000D02*
D03*
X839812D02*
D03*
D52*
X2889812Y330000D02*
D03*
X2850188D02*
D03*
X2810564D02*
D03*
X454812D02*
D03*
X415188D02*
D03*
X375564D02*
D03*
X895188Y330000D02*
D03*
X800188D02*
D03*
D53*
X1020200Y330000D02*
D03*
X1121200D02*
D03*
X785800Y862000D02*
D03*
X633800D02*
D03*
X481800D02*
D03*
D54*
X2987000Y318000D02*
D03*
X3023000D02*
D03*
Y282000D02*
D03*
X2987000D02*
D03*
X2979000Y300000D02*
D03*
X3031000D02*
D03*
X3005000Y274000D02*
D03*
Y326000D02*
D03*
X2987000Y903000D02*
D03*
X3023000D02*
D03*
Y867000D02*
D03*
X2987000D02*
D03*
X2979000Y885000D02*
D03*
X3031000D02*
D03*
X3005000Y859000D02*
D03*
Y911000D02*
D03*
X282000Y903000D02*
D03*
X318000D02*
D03*
Y867000D02*
D03*
X282000D02*
D03*
X274000Y885000D02*
D03*
X326000D02*
D03*
X300000Y859000D02*
D03*
Y911000D02*
D03*
X282000Y318000D02*
D03*
X318000D02*
D03*
Y282000D02*
D03*
X282000D02*
D03*
X274000Y300000D02*
D03*
X326000D02*
D03*
X300000Y274000D02*
D03*
Y326000D02*
D03*
D55*
X266900Y427700D02*
D03*
X3038100Y402300D02*
D03*
D56*
X2978000Y695500D02*
D03*
Y623500D02*
D03*
D57*
X3035000Y703900D02*
D03*
Y614100D02*
D03*
D58*
X2990500Y700800D02*
D03*
Y618200D02*
D03*
D59*
X2984500Y631500D02*
D03*
X2991500Y635500D02*
D03*
Y643500D02*
D03*
X2984500Y647500D02*
D03*
X2991500Y651500D02*
D03*
X2984500Y655500D02*
D03*
Y663500D02*
D03*
X2991500Y667500D02*
D03*
X2984500Y671500D02*
D03*
X2991500Y675500D02*
D03*
Y683500D02*
D03*
X2984500Y687500D02*
D03*
X2992986Y618208D02*
D03*
X2987779D02*
D03*
X2987804Y700808D02*
D03*
X2992986Y700808D02*
D03*
X3032305Y614118D02*
D03*
X3037486Y614108D02*
D03*
X3032305Y703907D02*
D03*
X3037486Y703908D02*
D03*
M02*
