M48
;Layer_Color=9474304
;FILE_FORMAT=4:4
METRIC,LZ
;TYPE=PLATED
T1F00S00C0.3000
T2F00S00C0.4000
T3F00S00C0.5000
T4F00S00C0.6000
T5F00S00C0.7620
T6F00S00C0.9000
T7F00S00C1.0000
T8F00S00C1.2000
T9F00S00C1.3000
T10F00S00C1.5000
T11F00S00C3.2500
;TYPE=NON_PLATED
T12F00S00C0.6500
%
T01
X02957195Y006379
X02960195Y006519
Y006659
X02956195Y00705
T02
X0045Y00391
X02283Y00293
X02545Y00325
Y0035
X02705Y00285
X0272
X02811Y004325
X02855Y00465
X028715Y005061
Y005188
X02905Y0049
X02925
X029585Y005058
X02995Y00544
X02997195Y006009
X02987195
X02987779Y00618208
X02992986
X029915Y006355
Y006435
Y006515
X029845Y006475
Y006555
Y006635
Y006715
X029915Y006675
Y006755
Y006835
X029845Y006875
X02987804Y00700808
X02992986Y00700808
X03032305Y00703907
X03037486Y00703908
X03015Y00755
X029845Y006315
X03032305Y00614118
X03037486Y00614108
X0292Y00601
X02924695Y00638
Y00666
X029Y00685
Y00705
X02846Y0071405
X02795Y00606
X02835Y005535
X0289Y00563
X0291005Y0045405
X0291Y00429
X03Y00445
X0302Y00485
X031505Y0056485
X02759Y005035
X02742Y00485
X02737Y00524
X02715Y005035
X02693Y00524
X026795Y00409
X027645
X02778Y00676
X02745Y0071
X0276Y00736
X02677Y0071
X0261
X0257985Y0072615
X0256085Y0068515
X0256Y00665
X02626Y0064895
Y0062355
Y0059815
X02634Y00685
X02447Y00713
X02464Y0077
X02447Y0061
X02455Y005987
X02403Y00573
X02382Y00485
Y0046
Y00435
Y0041
X02455Y00423
X0248Y00435
Y0041
Y0046
Y00485
X02455Y00472
X02235Y0051
X02153Y0048
X02319Y00595
X023Y0065
X02355Y00713
X0199Y00638
X0195Y0065
X01864Y0053
X01782Y005
X01619Y00658
X01579Y0067
X01451Y00542
X0137Y00487
Y00432
X012Y00677
X01071Y0056
X0099Y00505
Y0045
X01143Y00433
X0082Y00695
X00765Y00526
X00716Y00498
X00618
Y00516
X00595Y0057
X00502Y00516
Y00498
X00455Y00484
X0043Y00515
Y00545
X00455
X00425Y0057
X006145Y00409
X006995
X00395Y00454
X00355Y0047
X00332Y00516
X00263Y00515
Y0049
X00899Y00875
X00911
T03
X029905Y006182
X03035Y006141
Y007039
X029905Y007008
T04
X01217Y00297
X01234
X01274Y00362
Y00376
X01521Y00316
Y00301
X01803Y00293
X0213
X02254Y00471
Y00489
X02281
Y00471
X02275Y00595
Y00615
Y00635
Y00655
Y00675
X02258Y0068
X02238
X02218
X02198
X02178
X02161Y00675
Y00655
Y00635
Y00615
Y00595
X02007Y00594
Y0061
X01951Y00587
Y00564
X01923
Y00586
X01904Y00615
Y00635
Y00655
Y00675
Y00695
X01887Y007
X01867
X01847
X01827
X01807
X0179Y00695
Y00675
Y00655
Y00635
Y00615
X01636Y00614
Y0063
X01922Y005
X0195
X01581Y00584
Y00607
X01553Y00606
Y00584
X01525Y00622
Y00642
Y00662
Y00682
Y00702
X01508Y00707
X01488
X01468
X01448
X01428
X01411Y00702
Y00682
Y00662
Y00642
Y00622
X0141Y0044
X0139
X0146
X01195Y00438
X01201Y00591
Y00614
X01173Y00613
Y00591
X01145Y0064
Y0066
Y0068
Y007
Y0072
X01128Y00725
X01108
X01088
X01068
X01048
X01031Y0072
Y007
Y0068
Y0066
Y0064
X00909Y00635
Y00618
X00821Y00609
Y00632
X0101Y00458
X0103
X0108
X01165Y00438
X0118
X00793Y00609
Y00631
X00625Y0056
X00455
X00285Y00558
T05
X00282Y00282
X00274Y003
X00282Y00318
X003Y00326
X00318Y00318
X00326Y003
X00318Y00282
X003Y00274
X02987Y00282
X02979Y003
X02987Y00318
X03005Y00326
X03023Y00318
X03031Y003
X03023Y00282
X03005Y00274
X00318Y00867
X00326Y00885
X00318Y00903
X003Y00911
X00282Y00903
X00274Y00885
X00282Y00867
X003Y00859
X02987Y00867
X02979Y00885
X02987Y00903
X03005Y00911
X03023Y00903
X03031Y00885
X03023Y00867
X03005Y00859
T06
X029619Y004023
Y004277
X030381
Y004023
X028674Y005752
Y006006
Y00626
X02842
Y006006
Y005752
X003431Y004277
Y004023
X002669
Y004277
T07
X00415Y00623
X00465
X00523Y00603
X00525
X00527
X00585Y00623
X00635
X00693Y00603
X00695
X00697
X00755Y00623
Y00745
X00635
X00585
X00465
X00415
X00295
Y00623
X00353Y00603
X00355
X00357
T08
X00542Y00305
X00612
X00682
X00647Y00355
X00577
X010202Y0033
X01071
X011212
X01172
X01278Y00306
X01348
X01413
X01483
X01448Y00356
X01313
X0161Y00362
X01645
X0168
X01715
X0175
X01785
X0182
X01855
X0189
X01925
X0196
Y00312
X01925
X0189
X01855
X0182
X01785
X0175
X01715
X0168
X01645
X0161
X01995
X0203
X02065
X021
Y00362
X02065
X0203
X01995
X0216
X02195
X0223
X02265
X023
X02335
X0237
Y00312
X02335
X023
X02265
X0223
X02195
X0216
X02405
X0244
X02475
X0251
Y00362
X02475
X0244
X02405
X02642Y00355
X02712
X02747Y00305
X02677
X02607
X003802Y00862
X00431
X004818
X005322
X00583
X006338
X006842
X00735
X007858
X00868Y00881
X00938
X01001
X01071
X01134
X01169Y00831
X01036
X00903
X01204Y00881
X01267
X01337
X014
X0147
X01533
X01568Y00831
X01435
X01302
X01603Y00881
X01666
X01736
X01799
X01869
X01932
X01967Y00831
X01834
X01701
X02002Y00881
X02065
X02135
X02198
X02268
X02331
X02366Y00831
X02233
X021
X02401Y00881
X02464Y00881
X02534
X02597Y00881
X02667
X0273Y00881
X02765Y00831
X02632Y00831
X02499Y00831
X028Y00881
X02863Y00881
X02933
X02898Y00831
T09
X02059Y00575
X02135
X01764Y00595
X01688
X01385Y00602
X01309
X01005Y0062
X00929
T10
X00375564Y0033
X00415188
X00454812
X00494436
X00800188Y0033
X00839812
X00895188
X00934812
X02810564Y0033
X02850188
X02889812
X02929436
T11
X003Y003
X03005
X003Y00885
X03005
T12
X02978Y006235
Y006955
M30
